<?xml version="1.0" encoding="utf-8"?>
<!-- Generator: Adobe Illustrator 24.1.2, SVG Export Plug-In . SVG Version: 6.00 Build 0)  -->
<svg version="1.1" id="Layer_1" xmlns="http://www.w3.org/2000/svg" xmlns:xlink="http://www.w3.org/1999/xlink" x="0px" y="0px"
	 viewBox="0 0 68 68" style="enable-background:new 0 0 68 68;" xml:space="preserve">
<style type="text/css">
	.st0{fill-rule:evenodd;clip-rule:evenodd;fill:#346275;}
</style>
<desc>Created with Sketch.</desc>
<path class="st0" d="M34,0C15.2,0,0,15.2,0,34s15.2,34,34,34s34-15.2,34-34S52.8,0,34,0z M25.8,39.9l-0.7,3.9h-14l0.6-2.9l4.4-3.4
	c4.1-3.4,6.7-5.8,6.7-8.2c0-1.5-1-2.5-2.8-2.5s-3.3,0.5-4.4,1.2l-0.9-3.3c1.6-1,4-1.8,6.4-1.8c4.1,0,6.4,2.4,6.4,5.6
	c0,4.2-3.4,7.1-7,9.9l-2.1,1.5V40L25.8,39.9L25.8,39.9z M35.7,43.8h-4.4l3.1-16.3h-0.1l-4,1.8l-0.2-3.5l5.7-2.5h3.7L35.7,43.8z
	 M57.6,36.8H51v7h-3.1v-7h-6.5v-2.9h6.5V27H51v6.9h6.5L57.6,36.8L57.6,36.8z"/>
</svg>
