<?xml version="1.0" encoding="utf-8"?>
<!-- Generator: Adobe Illustrator 24.1.2, SVG Export Plug-In . SVG Version: 6.00 Build 0)  -->
<svg version="1.1" id="Layer_1" xmlns="http://www.w3.org/2000/svg" xmlns:xlink="http://www.w3.org/1999/xlink" x="0px" y="0px"
	 viewBox="0 0 107 25" style="enable-background:new 0 0 107 25;" xml:space="preserve">
<style type="text/css">
	.st0{fill:#346275;}
</style>
<desc>Created with Sketch.</desc>
<g id="Page-1">
	<g id="affiliate">
		<path class="st0" d="M15,24h-4.2c0-0.9,0.1-2,0.2-3.1h-0.1c-0.7,1.3-1.6,2.2-2.5,2.7c-0.9,0.5-1.9,0.8-2.8,0.8
			c-1.4,0-2.6-0.5-3.4-1.5c-0.9-1-1.3-2.3-1.3-3.9c0-2.8,0.9-5.3,2.8-7.5C5.4,9.2,8.2,8.1,12,8c2,0,3.7,0.3,5.2,0.8L15.6,17
			C15.2,19.3,15,21.7,15,24z M11.4,15.2l0.6-3.6c-0.3-0.1-0.7-0.1-1.2-0.1c-0.7,0-1.4,0.2-2,0.6c-0.6,0.4-1.2,0.9-1.7,1.6
			c-1,1.4-1.5,2.8-1.5,4.4c0,0.8,0.2,1.4,0.5,1.9c0.3,0.5,0.8,0.7,1.4,0.7c0.8,0,1.5-0.4,2.2-1.3C10.4,18.5,11,17.1,11.4,15.2z
			 M23.3,24h-4.6L21,11.9h-2l0.6-3.5h2l0.1-0.8c0.2-1,0.5-1.9,0.9-2.8c0.4-0.9,1-1.7,1.8-2.3c0.3-0.3,0.7-0.5,1.1-0.7
			c0.3-0.2,0.7-0.3,1.1-0.5c0.8-0.2,1.6-0.3,2.3-0.3c1.1,0,1.9,0.2,2.4,0.4L30.5,5c-0.4-0.2-0.9-0.3-1.5-0.3c-0.8,0-1.3,0.3-1.8,0.8
			c-0.4,0.5-0.8,1.2-0.9,2l-0.1,0.8h3.1l-0.7,3.5h-3L23.3,24z M32.8,24h-4.6l2.3-12.1h-2l0.6-3.5h2l0.1-0.8c0.2-1,0.5-1.9,0.9-2.8
			c0.4-0.9,1-1.7,1.8-2.3c0.3-0.3,0.7-0.5,1.1-0.7c0.3-0.2,0.7-0.3,1.1-0.5c0.8-0.2,1.6-0.3,2.3-0.3c1.1,0,1.9,0.2,2.4,0.4L40.1,5
			c-0.4-0.2-0.9-0.3-1.5-0.3c-0.8,0-1.3,0.3-1.8,0.8c-0.4,0.5-0.8,1.2-0.9,2l-0.1,0.8h3.1l-0.7,3.5h-3L32.8,24z M41.8,24h-4.6
			l3-15.6h4.6L41.8,24z M43.1,6.3L43.1,6.3c-0.7,0-1.3-0.2-1.7-0.7c-0.4-0.4-0.7-1-0.7-1.7c0-0.9,0.3-1.5,0.9-2
			c0.5-0.5,1.2-0.7,2-0.7c0.8,0,1.3,0.2,1.8,0.6c0.4,0.4,0.7,1,0.7,1.8c0,0.9-0.3,1.6-0.8,2C44.6,6.1,43.9,6.3,43.1,6.3z M50.3,24
			h-4.6L50,1.3h4.6L50.3,24z M58.8,24h-4.6l3-15.6h4.6L58.8,24z M60,6.3c0.8,0,1.5-0.2,2.1-0.8c0.5-0.5,0.8-1.2,0.8-2
			c0-0.7-0.2-1.3-0.7-1.8c-0.4-0.4-1-0.6-1.8-0.6c-0.8,0-1.4,0.2-2,0.7c-0.6,0.5-0.8,1.2-0.9,2c0,0.7,0.2,1.3,0.7,1.7
			C58.8,6.1,59.3,6.3,60,6.3L60,6.3z M77.2,24H73c0-0.9,0.1-2,0.2-3.1h-0.1c-0.7,1.3-1.6,2.2-2.5,2.7c-0.9,0.5-1.9,0.8-2.8,0.8
			c-1.4,0-2.6-0.5-3.4-1.5c-0.9-1-1.3-2.3-1.3-3.9c0-2.8,0.9-5.3,2.8-7.5c1.8-2.2,4.6-3.4,8.5-3.5c2,0,3.7,0.3,5.2,0.8L77.9,17
			C77.4,19.3,77.2,21.7,77.2,24z M73.6,15.2l0.6-3.6c-0.3-0.1-0.8-0.1-1.2-0.1c-0.7,0-1.4,0.2-2,0.6c-0.6,0.4-1.2,0.9-1.7,1.6
			c-1,1.4-1.5,2.8-1.5,4.4c0,0.8,0.2,1.4,0.5,1.9c0.3,0.5,0.8,0.7,1.4,0.7c0.8,0,1.5-0.4,2.2-1.3C72.7,18.5,73.2,17.1,73.6,15.2z
			 M89.2,4.1l-4.7,1.3l-0.6,3h-2l-0.6,3.5h2l-1.2,6.2c-0.2,1.1-0.3,2.1-0.3,2.9c0,1,0.3,1.8,1,2.4c0.7,0.6,1.7,0.9,3.1,1
			c1.1,0,2-0.1,2.7-0.4l0.5-3.6c-0.4,0-0.8,0.1-1.3,0.1c-0.9,0-1.4-0.5-1.3-1.3c0-0.6,0.1-1.3,0.3-2l1.1-5.3h3.3l0.7-3.5h-3.4
			L89.2,4.1z M104.2,19.8l0.3,3.3c-0.9,0.4-1.9,0.8-2.9,1c-1.1,0.2-2,0.3-2.9,0.3c-4.5-0.1-6.8-2.3-6.8-6.6c0-2.5,0.8-4.7,2.5-6.7
			c1.6-2,3.8-3,6.7-3c1.6,0,3,0.4,3.9,1.3s1.5,2,1.5,3.5c0,2-0.9,3.4-2.7,4.2c-1.8,0.8-4.3,1.2-7.5,1.1c0,0.5,0.2,1.1,0.5,1.6
			c0.6,0.8,1.6,1.2,3,1.2C101.5,20.8,102.9,20.4,104.2,19.8z M102.1,12.7L102.1,12.7c0-0.4-0.2-0.8-0.5-1c-0.3-0.2-0.7-0.4-1.3-0.4
			c-1,0-1.9,0.4-2.5,1.1c-0.6,0.7-1,1.4-1.2,2.2C100.3,14.7,102.1,14.1,102.1,12.7z"/>
	</g>
</g>
</svg>
