<?xml version="1.0" encoding="utf-8"?>
<!-- Generator: Adobe Illustrator 24.1.2, SVG Export Plug-In . SVG Version: 6.00 Build 0)  -->
<svg version="1.1" id="Layer_1" xmlns="http://www.w3.org/2000/svg" xmlns:xlink="http://www.w3.org/1999/xlink" x="0px" y="0px"
	 viewBox="0 0 120 40" style="enable-background:new 0 0 120 40;" xml:space="preserve">
<style type="text/css">
	.st0{fill-rule:evenodd;clip-rule:evenodd;fill:#346275;}
	.st1{filter:url(#Adobe_OpacityMaskFilter);}
	.st2{fill-rule:evenodd;clip-rule:evenodd;fill:#FFFFFF;}
	.st3{mask:url(#mask-2_1_);fill-rule:evenodd;clip-rule:evenodd;fill:#346275;}
</style>
<desc>Created with Sketch.</desc>
<g id="Footer">
	<g id="belfius">
		<g id="Page-1">
			<path id="Combined-Shape" class="st0" d="M0,21V5.2c0-2.6,2.1-4.7,4.7-4.7h15.8c2.6,0,4.7,2.1,4.7,4.7V21l0,4.7H4.7
				C2.1,25.7,0,23.6,0,21z M5.8,9.6c0,0.9,0.6,1.8,1.8,1.8h10c1.2,0,1.8-0.9,1.8-1.8c0-0.9-0.6-1.8-1.8-1.8h-10
				C6.4,7.8,5.8,8.8,5.8,9.6z M5.8,16.6c0,0.9,0.6,1.8,1.8,1.8h10c1.2,0,1.8-0.9,1.8-1.8c0-0.9-0.6-1.8-1.8-1.8h-10
				C6.4,14.9,5.8,15.8,5.8,16.6z"/>
			<path id="Fill-7" class="st0" d="M35.7,10.9h4.5c1.9,0,3.4-1.5,3.4-3.5V7.1c-0.2-1.7-1.7-3-3.4-3h-4.5V10.9z M35.7,22.2h4.5
				c2.2,0,3.9-1.7,3.9-3.9c0-2.2-1.8-3.9-3.9-3.9h-4.5V22.2z M40.2,25.7H34c-0.9,0-1.7-0.8-1.7-1.7V2.3c0-0.9,0.8-1.7,1.7-1.7h6.2
				c3.8,0,6.9,3.1,6.9,6.9c0,2-0.8,3.8-2.3,5.1c1.7,1.4,2.7,3.5,2.7,5.7C47.6,22.4,44.3,25.7,40.2,25.7L40.2,25.7z"/>
			<path id="Fill-9" class="st0" d="M53.1,14.1h6.4v-0.4c0-1.8-1.4-3.2-3.2-3.2c-1.8,0-3.2,1.4-3.2,3.2V14.1z M56.7,26
				c-3.8,0-7-3.1-7-6.7v-5.6c0-3.7,3-6.7,6.7-6.7c3.7,0,6.7,3,6.7,6.7v2.1c0,0.9-0.8,1.7-1.7,1.7h-8.2v1.7c0,1.7,1.7,3.2,3.5,3.2
				c1.1,0,2-0.3,2.7-1.1c0.4-0.5,0.8-0.8,1.4-0.8c0.9,0,1.8,0.8,1.8,1.7c0,0.4-0.1,0.7-0.3,1v0c0,0-0.1,0.2-0.4,0.5
				C60.6,25.2,58.7,26,56.7,26L56.7,26z"/>
			<path id="Fill-11" class="st0" d="M67.5,25.7c-0.9,0-1.7-0.6-1.7-1.7V2.3c0-1.1,0.9-1.7,1.7-1.7c0.9,0,1.7,0.6,1.7,1.7v21.6
				C69.2,25.1,68.4,25.7,67.5,25.7"/>
			<g id="Group-15" transform="translate(70.985915, 0.277465)">
				<g id="Clip-14">
				</g>
				<defs>
					<filter id="Adobe_OpacityMaskFilter" filterUnits="userSpaceOnUse" x="0.2" y="0" width="12.3" height="25.4">
						<feColorMatrix  type="matrix" values="1 0 0 0 0  0 1 0 0 0  0 0 1 0 0  0 0 0 1 0"/>
					</filter>
				</defs>
				<mask maskUnits="userSpaceOnUse" x="0.2" y="0" width="12.3" height="25.4" id="mask-2_1_">
					<g class="st1">
						<polygon id="path-1_1_" class="st2" points="0.2,0 12.6,0 12.6,25.4 0.2,25.4 						"/>
					</g>
				</mask>
				<path id="Fill-13" class="st3" d="M5,25.4c-0.9,0-1.7-0.6-1.7-1.7V10.5H2c-1.1,0-1.7-0.9-1.7-1.7S0.8,7.1,2,7.1h1.3v-2
					C3.3,2.2,5.6,0,8.7,0c2.7,0,3.9,1.3,3.9,2.5c0,0.9-0.6,1.7-1.5,1.7c-0.4,0-0.7-0.1-1-0.3C9.8,3.8,9.3,3.5,8.7,3.5
					c-1.4,0-1.9,0.9-1.9,1.6v2h3.7c1.1,0,1.7,0.9,1.7,1.7s-0.6,1.7-1.7,1.7H6.8v13.1C6.8,24.8,5.9,25.4,5,25.4"/>
			</g>
			<path id="Fill-16" class="st0" d="M87.1,5.3c-0.9,0-1.7-0.6-1.7-1.7V2.3c0-1.1,0.9-1.7,1.7-1.7c0.9,0,1.7,0.6,1.7,1.7v1.3
				C88.8,4.7,88,5.3,87.1,5.3 M87.1,25.7c-0.9,0-1.7-0.6-1.7-1.7V9.1c0-1.1,0.9-1.7,1.7-1.7c0.9,0,1.7,0.6,1.7,1.7v14.9
				C88.8,25.1,88,25.7,87.1,25.7"/>
			<path id="Fill-18" class="st0" d="M98.7,26C95,26,92,23,92,19.3V9.1c0-1.1,0.9-1.7,1.7-1.7s1.7,0.6,1.7,1.7v10.2
				c0,1.8,1.4,3.2,3.2,3.2c1.8,0,3.2-1.4,3.2-3.2V9.1c0-1.1,0.9-1.7,1.7-1.7s1.7,0.6,1.7,1.7v10.2C105.4,23,102.4,26,98.7,26"/>
			<path id="Fill-20" class="st0" d="M113.3,26c-1.8,0-4.2-0.8-5.3-2.4c-0.2-0.3-0.3-0.7-0.3-1c0-0.9,0.9-1.7,1.8-1.7
				c0.5,0,1,0.3,1.4,0.8l0.1,0.1c0.5,0.6,1.4,0.9,2.4,0.9c1.9,0,2.9-1.1,2.9-2.1c0-1.5-1.5-2.1-3.3-2.8c-2.3-0.9-5.1-2-5.1-5.5
				c0-3.4,2.9-5.1,5.7-5.1c2.1,0,4.2,1.1,5.3,2.8c0.2,0.3,0.3,0.6,0.3,1c0,0.9-0.8,1.7-1.8,1.7c-0.6,0-1.1-0.3-1.4-0.8
				c-0.7-0.8-1.4-1.2-2.4-1.2c-1.3,0-2.2,0.6-2.2,1.7c0,1.1,1.4,1.7,3,2.3c2.4,1,5.4,2.1,5.4,5.9C119.7,24,116.4,26,113.3,26"/>
			<path id="Fill-22" class="st0" d="M34.5,34.9h-1.4v2.5h1.4c0.7,0,1.2-0.6,1.2-1.2C35.8,35.4,35.2,34.9,34.5,34.9L34.5,34.9z
				 M35.6,32.9c0-0.6-0.5-1.1-1.1-1.1h-1.4V34h1.4C35.2,34,35.6,33.5,35.6,32.9L35.6,32.9z M34.5,38.2h-1.9c-0.2,0-0.4-0.2-0.4-0.4
				v-6.4c0-0.2,0.2-0.4,0.4-0.4h1.9c1.1,0,2,0.9,2,2c0,0.6-0.3,1.2-0.7,1.5c0.5,0.4,0.8,1,0.8,1.7C36.7,37.3,35.7,38.2,34.5,38.2
				L34.5,38.2z"/>
			<path id="Fill-24" class="st0" d="M40.3,35.7l-0.9,0.2c-0.6,0.1-0.9,0.4-0.9,0.8c0,0.4,0.3,0.7,0.9,0.7c0.5,0,0.9-0.4,0.9-0.8
				V35.7z M39.4,38.3c-0.9,0-1.8-0.5-1.8-1.6c0-1,0.8-1.5,1.7-1.7l1-0.2v-0.3c0-0.5-0.3-0.8-0.9-0.8c-0.7,0-0.7,0.5-1.1,0.5
				c-0.2,0-0.4-0.2-0.4-0.4c0-0.1,0.1-0.3,0.2-0.4c0.4-0.4,0.9-0.6,1.4-0.6c1.1,0,1.8,0.7,1.8,1.7v2.1
				C41.2,37.6,40.3,38.3,39.4,38.3L39.4,38.3z"/>
			<path id="Fill-26" class="st0" d="M45.6,38.2c-0.2,0-0.4-0.2-0.4-0.4v-3c0-0.6-0.5-1-1-1s-1,0.5-1,1v3c0,0.3-0.2,0.4-0.4,0.4
				c-0.2,0-0.4-0.2-0.4-0.4v-3c0-1.1,0.9-1.9,1.9-1.9c1.1,0,1.9,0.9,1.9,1.9v3C46.1,38.1,45.9,38.2,45.6,38.2"/>
			<path id="Fill-28" class="st0" d="M50.6,38.2c-0.1,0-0.2-0.1-0.3-0.2L48.7,36l-0.5,0.6v1.2c0,0.3-0.2,0.4-0.4,0.4
				c-0.2,0-0.4-0.2-0.4-0.4v-6.4c0-0.3,0.2-0.4,0.4-0.4c0.2,0,0.4,0.2,0.4,0.4v3.9l1.8-2.2c0.1-0.1,0.2-0.2,0.3-0.2
				c0.2,0,0.5,0.2,0.5,0.5c0,0.1,0,0.2-0.1,0.3l-1.4,1.6l1.7,2.2c0.1,0.1,0.1,0.2,0.1,0.3C51,38,50.8,38.2,50.6,38.2"/>
			<path id="Fill-30" class="st0" d="M56.2,31.7c-0.5,0-0.8,0.3-0.8,1c0,0.2,0.2,0.6,0.5,1l0,0.1c0.4-0.3,1-0.7,1-1.3
				C56.9,32,56.6,31.7,56.2,31.7L56.2,31.7z M55.7,34.9c-0.4,0.3-0.7,0.7-0.7,1.2c0,0.7,0.6,1.3,1.4,1.3c0.4,0,0.7-0.2,1-0.5
				L55.7,34.9z M58.7,38.2c-0.1,0-0.2-0.1-0.3-0.2L58,37.6c-0.4,0.4-0.9,0.7-1.6,0.7c-1.2,0-2.3-0.9-2.3-2.2c0-0.9,0.5-1.5,1-1.9
				c-0.3-0.4-0.7-1-0.7-1.5c0-1,0.6-1.9,1.7-1.9c0.9,0,1.6,0.7,1.6,1.6c0,1-0.7,1.5-1.4,2l1.4,1.7c0.1-0.3,0.2-0.5,0.2-0.6
				c0.1-0.2,0.2-0.3,0.4-0.3c0.2,0,0.5,0.1,0.5,0.4c0,0,0,0.1,0,0.1c0,0,0,0.2-0.1,0.4c-0.1,0.2-0.2,0.5-0.3,0.7l0.6,0.7
				c0.1,0.1,0.1,0.2,0.1,0.3C59.2,38,59,38.2,58.7,38.2L58.7,38.2z"/>
			<path id="Fill-32" class="st0" d="M67,31.5L64.9,38c-0.1,0.3-0.3,0.4-0.4,0.4c-0.2,0-0.3-0.1-0.4-0.4l-2.1-6.5c0-0.1,0-0.1,0-0.2
				c0-0.3,0.2-0.4,0.5-0.4c0.2,0,0.3,0.1,0.4,0.3l1.7,5.2l1.7-5.2c0.1-0.2,0.2-0.3,0.4-0.3c0.2,0,0.5,0.2,0.5,0.4
				C67,31.4,67,31.4,67,31.5"/>
			<path id="Fill-34" class="st0" d="M70.7,34.7c0-0.6-0.5-1-1-1c-0.6,0-1,0.5-1,1v0.2h2V34.7z M71.1,35.8h-2.5v0.6
				c0,0.5,0.5,1,1.1,1c0.3,0,0.6-0.1,0.9-0.3c0.1-0.1,0.2-0.2,0.4-0.2c0.2,0,0.5,0.2,0.5,0.4c0,0.1,0,0.2-0.1,0.3c0,0,0,0.1-0.1,0.1
				c-0.4,0.4-0.9,0.6-1.5,0.6c-1,0-2-0.8-2-1.9v-1.6c0-1.1,0.9-1.9,1.9-1.9c1.1,0,1.9,0.9,1.9,1.9v0.6
				C71.6,35.6,71.4,35.8,71.1,35.8L71.1,35.8z"/>
			<path id="Fill-36" class="st0" d="M75.2,34.1c-0.1,0-0.2,0-0.3-0.1l0,0c-0.2-0.1-0.4-0.2-0.6-0.2c-0.5,0-0.8,0.3-0.8,1.1v3
				c0,0.3-0.2,0.4-0.4,0.4c-0.2,0-0.4-0.2-0.4-0.4v-3c0-1,0.6-2,1.7-2c0.4,0,0.9,0.2,1.2,0.5c0.1,0.1,0.1,0.2,0.1,0.3
				C75.7,33.9,75.5,34.1,75.2,34.1"/>
			<path id="Fill-38" class="st0" d="M79.5,38.2h-2.9c-0.3,0-0.5-0.2-0.5-0.4c0-0.1,0-0.2,0.1-0.3l2.4-3.7h-1.8
				c-0.3,0-0.4-0.2-0.4-0.4s0.1-0.4,0.4-0.4h2.6c0.3,0,0.5,0.2,0.5,0.4c0,0.1,0,0.2-0.1,0.3l-2.4,3.7h2c0.3,0,0.4,0.2,0.4,0.4
				C80,38,79.8,38.2,79.5,38.2"/>
			<path id="Fill-40" class="st0" d="M83.8,34.7c0-0.6-0.5-1-1-1c-0.6,0-1,0.5-1,1v0.2h2V34.7z M84.3,35.8h-2.5v0.6
				c0,0.5,0.5,1,1.1,1c0.3,0,0.6-0.1,0.9-0.3c0.1-0.1,0.2-0.2,0.4-0.2c0.2,0,0.5,0.2,0.5,0.4c0,0.1,0,0.2-0.1,0.3c0,0,0,0.1-0.1,0.1
				c-0.4,0.4-0.9,0.6-1.5,0.6c-1,0-2-0.8-2-1.9v-1.6c0-1.1,0.9-1.9,1.9-1.9c1.1,0,1.9,0.9,1.9,1.9v0.6
				C84.7,35.6,84.5,35.8,84.3,35.8L84.3,35.8z"/>
			<path id="Fill-42" class="st0" d="M89.1,38.2c-0.1,0-0.2-0.1-0.3-0.2L87.2,36l-0.5,0.6v1.2c0,0.3-0.2,0.4-0.4,0.4
				c-0.2,0-0.4-0.2-0.4-0.4v-6.4c0-0.3,0.2-0.4,0.4-0.4c0.2,0,0.4,0.2,0.4,0.4v3.9l1.8-2.2c0.1-0.1,0.2-0.2,0.3-0.2
				c0.2,0,0.5,0.2,0.5,0.5c0,0.1,0,0.2-0.1,0.3l-1.4,1.6l1.7,2.2c0.1,0.1,0.1,0.2,0.1,0.3C89.6,38,89.3,38.2,89.1,38.2"/>
			<path id="Fill-44" class="st0" d="M93.3,34.7c0-0.6-0.5-1-1-1c-0.6,0-1,0.5-1,1v0.2h2V34.7z M93.8,35.8h-2.5v0.6
				c0,0.5,0.5,1,1.1,1c0.3,0,0.6-0.1,0.9-0.3c0.1-0.1,0.2-0.2,0.4-0.2c0.2,0,0.5,0.2,0.5,0.4c0,0.1,0,0.2-0.1,0.3c0,0,0,0.1-0.1,0.1
				c-0.4,0.4-0.9,0.6-1.5,0.6c-1,0-2-0.8-2-1.9v-1.6c0-1.1,0.9-1.9,1.9-1.9s1.9,0.9,1.9,1.9v0.6C94.2,35.6,94,35.8,93.8,35.8
				L93.8,35.8z"/>
			<path id="Fill-46" class="st0" d="M97.9,34.1c-0.1,0-0.2,0-0.3-0.1l0,0c-0.2-0.1-0.4-0.2-0.6-0.2c-0.5,0-0.8,0.3-0.8,1.1v3
				c0,0.3-0.2,0.4-0.4,0.4c-0.2,0-0.4-0.2-0.4-0.4v-3c0-1,0.6-2,1.7-2c0.4,0,0.9,0.2,1.2,0.5c0.1,0.1,0.1,0.2,0.1,0.3
				C98.3,33.9,98.1,34.1,97.9,34.1"/>
			<path id="Fill-48" class="st0" d="M99.6,38.2c-0.2,0-0.4-0.2-0.4-0.4v-4.4c0-0.3,0.2-0.4,0.4-0.4c0.2,0,0.4,0.2,0.4,0.4v4.4
				C100,38.1,99.8,38.2,99.6,38.2 M99.6,32.3c-0.2,0-0.4-0.2-0.4-0.4v-0.5c0-0.3,0.2-0.4,0.4-0.4c0.2,0,0.4,0.2,0.4,0.4v0.5
				C100,32.2,99.8,32.3,99.6,32.3"/>
			<path id="Fill-50" class="st0" d="M104.6,38.2c-0.2,0-0.4-0.2-0.4-0.4v-3c0-0.6-0.5-1-1-1c-0.6,0-1,0.5-1,1v3
				c0,0.3-0.2,0.4-0.4,0.4c-0.2,0-0.4-0.2-0.4-0.4v-3c0-1.1,0.9-1.9,1.9-1.9c1.1,0,1.9,0.9,1.9,1.9v3
				C105.1,38.1,104.8,38.2,104.6,38.2"/>
			<path id="Fill-52" class="st0" d="M109.1,34.7c0-0.6-0.5-1-1-1s-1,0.5-1,1v1.5c0,0.6,0.5,1,1,1s1-0.5,1-1V34.7z M108.1,40
				c-0.5,0-1.3-0.2-1.6-0.7c-0.1-0.1-0.1-0.2-0.1-0.3c0-0.2,0.2-0.4,0.5-0.4c0.1,0,0.3,0.1,0.4,0.2c0,0,0,0,0,0
				c0.2,0.2,0.5,0.3,0.8,0.3c0.6,0,1-0.5,1-1v-0.2c-0.3,0.2-0.7,0.3-1,0.3c-1.1,0-1.9-0.9-1.9-1.9v-1.5c0-1.1,0.9-1.9,1.9-1.9
				c1.1,0,1.9,0.9,1.9,1.9v1.5v1.9C110,39.1,109.1,40,108.1,40L108.1,40z"/>
			<path id="Fill-54" class="st0" d="M114,34.7c0-0.6-0.5-1-1-1c-0.6,0-1,0.5-1,1v0.2h2V34.7z M114.4,35.8h-2.5v0.6
				c0,0.5,0.5,1,1.1,1c0.3,0,0.6-0.1,0.9-0.3c0.1-0.1,0.2-0.2,0.4-0.2c0.2,0,0.5,0.2,0.5,0.4c0,0.1,0,0.2-0.1,0.3c0,0,0,0.1-0.1,0.1
				c-0.4,0.4-0.9,0.6-1.5,0.6c-1,0-2-0.8-2-1.9v-1.6c0-1.1,0.9-1.9,1.9-1.9c1.1,0,1.9,0.9,1.9,1.9v0.6
				C114.9,35.6,114.7,35.8,114.4,35.8L114.4,35.8z"/>
			<path id="Fill-56" class="st0" d="M119.3,38.2c-0.2,0-0.4-0.2-0.4-0.4v-3c0-0.6-0.5-1-1-1c-0.6,0-1,0.5-1,1v3
				c0,0.3-0.2,0.4-0.4,0.4c-0.2,0-0.4-0.2-0.4-0.4v-3c0-1.1,0.9-1.9,1.9-1.9c1.1,0,1.9,0.9,1.9,1.9v3
				C119.7,38.1,119.5,38.2,119.3,38.2"/>
		</g>
	</g>
</g>
</svg>
