<?xml version="1.0" encoding="utf-8"?>
<!-- Generator: Adobe Illustrator 24.1.2, SVG Export Plug-In . SVG Version: 6.00 Build 0)  -->
<svg version="1.1" id="Layer_1" xmlns="http://www.w3.org/2000/svg" xmlns:xlink="http://www.w3.org/1999/xlink" x="0px" y="0px"
	 viewBox="0 0 276 132" style="enable-background:new 0 0 276 132;" xml:space="preserve">
<style type="text/css">
	.st0{fill-rule:evenodd;clip-rule:evenodd;fill:#346275;}
</style>
<g id="Page-1">
	<path id="commission_en" class="st0" d="M74.1,91.1c6.2,0,10.9,7.1,10.9,20c0,14.2-5.4,20.6-11.3,20.6h0c-6.1,0-11-7-11-20
		C62.7,98.3,67.7,91.1,74.1,91.1z M237.6,91.1c6.2,0,10.9,7.1,10.9,20c0,14.2-5.4,20.6-11.3,20.6h0c-6.1,0-11-7-11-20
		C226.2,98.3,231.3,91.1,237.6,91.1z M179.8,91.1c2.4,0,4.3,0.9,5.1,1.8l-0.8,2.3c-0.7-0.7-2.4-1.7-4.5-1.7c-4.2,0-5.7,3.9-5.7,7
		c0,4.5,1.8,6.6,5.5,9c4.3,2.9,6.5,6,6.5,11.5c0,6-3.1,10.7-8.5,10.7c-2.3,0-4.9-1.1-6.1-2.4l0.7-2.2c1.4,1.3,3.5,2.3,5.5,2.3
		c4,0,6.4-3.3,6.4-8.1c0-4.3-1.7-7-5.2-9.2c-3.6-2-6.8-5.3-6.8-10.9C172,95.2,175.3,91.1,179.8,91.1z M201.4,91.1
		c2.4,0,4.3,0.9,5.1,1.8l-0.8,2.3c-0.7-0.7-2.4-1.7-4.5-1.7c-4.2,0-5.7,3.9-5.7,7c0,4.5,1.8,6.6,5.5,9c4.3,2.9,6.5,6,6.5,11.5
		c0,6-3.1,10.7-8.5,10.7c-2.3,0-4.9-1.1-6.1-2.4l0.7-2.2c1.4,1.3,3.5,2.3,5.5,2.3c4,0,6.4-3.3,6.4-8.1c0-4.3-1.7-7-5.2-9.2
		c-3.6-2-6.8-5.3-6.8-10.9C193.6,95.2,196.9,91.1,201.4,91.1z M51.3,91.1c3.1,0,4.9,0.9,5.7,1.5l-0.6,2.3c-1.2-0.8-2.9-1.5-5.1-1.5
		c-6.3,0-10.9,6.1-10.9,18.1c0,11.6,4.2,17.7,10.7,17.7c2.2,0,4.2-0.6,5.5-1.6l0.6,2.2c-1.3,0.9-3.7,1.8-6.6,1.8
		c-6.2,0-12.1-5.7-12.1-20C38.4,98.7,43.8,91.1,51.3,91.1z M163,91.7v39.4h-2V91.7H163z M218.1,91.7v39.4h-2V91.7H218.1z
		 M258.6,91.7l9.6,22.4c2,5,3.7,9.1,5,13.2l0.1-0.1c-0.3-5.7-0.3-9.8-0.3-15.6l0-19.9h1.9v39.4H273l-9.5-22.5
		c-1.9-4.5-3.6-8.7-5-13.2l-0.1,0.1c0.2,5,0.3,9.2,0.3,16l0,19.7h-1.9V91.7H258.6z M130.6,91.7l5.5,22c1.2,5.1,2.2,9,2.9,13h0.1
		c0.7-3.9,1.6-7.6,2.9-12.9l5.6-22.1h2.4l1.8,39.4h-2l-0.8-18.8c-0.3-6-0.6-12.9-0.5-17.3h-0.2c-0.9,4.3-2,9-3.5,14.7l-5.5,21.4
		h-1.2l-5.2-20.7c-1.5-6.1-2.6-10.9-3.4-15.4h-0.1c0,4.7-0.3,11.3-0.6,17.8l-0.8,18.3h-2l1.9-39.4H130.6z M96.6,91.7l5.5,22
		c1.2,5.1,2.2,9,2.9,13h0.1c0.7-3.9,1.6-7.6,2.9-12.9l5.6-22.1h2.4l1.8,39.4h-2l-0.8-18.8c-0.3-6-0.6-12.9-0.5-17.3h-0.2
		c-0.9,4.3-2,9-3.5,14.7l-5.5,21.4h-1.2l-5.2-20.7c-1.5-6.1-2.6-10.9-3.4-15.4h-0.1c0,4.7-0.3,11.3-0.6,17.8l-0.8,18.3h-2l1.9-39.4
		H96.6z M1.7,122.3v6.7H11v-6.1h1.4v6.1h11.3v1.2H0.3v-7.9H1.7z M73.8,93.4c-6.4,0-9.1,9.4-9.1,18.2c0,8.5,3,17.7,9,17.7h0
		c6.1,0,9.1-9,9.1-18.1C82.9,103.1,80.3,93.4,73.8,93.4z M237.4,93.4c-6.4,0-9.1,9.4-9.1,18.2c0,8.5,3,17.7,9,17.7h0
		c6.1,0,9.1-9,9.1-18.1C246.5,103.1,243.8,93.4,237.4,93.4z M6.6,110.4c2,0,3.4,0.4,4.6,1.1c1.8,1,2.7,2.8,2.7,4.8
		c0,0.7,0,1.3-0.2,1.8h10v1.2H0.6c-0.2-0.9-0.5-2-0.5-3.3c0-1.9,0.7-3.3,1.9-4.2C3.1,110.9,4.6,110.4,6.6,110.4z M6.8,111.6
		c-3.4,0-5.3,1.6-5.3,4.4c0,1,0.1,1.7,0.2,2.1h10.5c0.2-0.5,0.3-1.1,0.3-1.8C12.5,113.5,10.6,111.6,6.8,111.6z M17.6,99.4
		c3.5,0,6.3,1.9,6.3,5.2c0,1.4-0.6,3-1.4,3.7l-1.3-0.4c0.8-0.9,1.4-2.1,1.4-3.4c0-2.4-1.9-3.9-4.8-3.9c-2.6,0-4.1,1-5.5,3.2
		c-1.2,2.2-3.2,4.1-6.4,4.1c-3.4,0-5.9-2-5.9-4.8c0-1.5,0.6-2.6,1-3.1l1.4,0.5c-0.4,0.4-1,1.5-1,2.7c0,2.5,2.3,3.5,4.2,3.5
		c2.7,0,3.9-1.1,5.3-3.3C12.5,100.8,14.4,99.4,17.6,99.4z M16.6,83.4c6.1,0,7.4,2.7,7.4,6.1c0,0.8-0.1,1.6-0.3,2l-3.2-0.3
		c0.1-0.4,0.2-0.9,0.2-1.4c0-1.6-0.6-2.7-4-2.7H0.3v-3.7H16.6z M267.8,37.8c3.1,0,5.4,0.6,6.8,1.3l-1.4,5.8c-1.2-0.6-2.8-1-5-1
		c-5.7,0-10.9,4.1-10.9,16.1c0,11.6,4.6,15.5,9.2,15.5c1.2,0,1.9-0.1,2.3-0.3v-12h-4.7v-5.6h11.2v22.1c-1.9,0.8-5.5,1.5-8.6,1.5
		c-4.5,0-8.3-1.2-11.2-4.2c-3.5-3.5-5.6-9.6-5.5-17.2C250.1,43.8,259.1,37.8,267.8,37.8z M56.7,37.8c3.1,0,5.4,0.6,6.8,1.3l-1.4,5.8
		c-1.2-0.6-2.8-1-5-1c-5.7,0-10.9,4.1-10.9,16.1c0,11.6,4.6,15.5,9.2,15.5c1.2,0,1.9-0.1,2.3-0.3v-12h-4.7v-5.6h11.2v22.1
		c-1.9,0.8-5.5,1.5-8.6,1.5c-4.5,0-8.3-1.2-11.2-4.2c-3.5-3.5-5.6-9.6-5.5-17.2C39,43.8,48,37.8,56.7,37.8z M98.7,38.1l9.1,42.8H101
		l-2.4-11.1h-8.8l-2.4,11.1h-6.8l9.8-42.8H98.7z M186.1,38.1v42.8h-7V38.1H186.1z M213.2,38.1l7.5,18.3c1.6,3.9,3.8,9.4,5.2,13.5
		h0.1c-0.4-5.5-0.8-12.1-0.8-19.7V38.1h6.2v42.8H225l-7.5-18.2c-1.6-3.9-3.6-9.1-4.8-13.6h-0.1c0.3,4.9,0.5,11,0.5,19.9v11.9h-6.2
		V38.1H213.2z M134.6,38.1l4.3,17.3c1.4,5.5,2.5,10,3.3,14.8h0.1c0.8-4.8,1.8-9.3,3.1-14.8l4.1-17.3h7.5l2.6,42.8h-6.4l-0.9-16.5
		c-0.3-4.8-0.5-10.7-0.5-15.4h-0.2c-0.9,4.7-2,9.8-3.1,14l-4.6,17.4h-4.8l-4.3-16.9c-1.2-4.3-2.4-9.6-3.1-14.4h-0.2
		c-0.1,4.8-0.3,10.5-0.6,15.5l-0.8,16.3h-6.1l2.9-42.8H134.6z M15.1,66.1c6,0,8.9,2.4,8.9,6.4c0,4.3-2.9,6.3-8.7,6.3H0.3v-3.7h15.4
		c3.8,0,5-1.2,5-2.6c0-1.6-1.2-2.7-5-2.7H0.3v-3.7H15.1z M94.5,44.9h-0.2c-0.5,3-1.1,7.1-1.6,9.8l-2,9.8h7.3l-1.8-9.8
		C95.5,51.8,94.9,47.9,94.5,44.9z M17,51c4.2,0,6.9,3,6.9,7.2c0,1.7-0.5,3.5-1,4.2l-3.2-0.6c0.5-0.9,0.9-2.4,0.9-3.6
		c0-2.3-1.3-3.5-3.3-3.5c-1.9,0-2.9,1.1-4.3,3c-1.7,2.6-4,4.4-6.5,4.4c-3.6,0-6.5-2.5-6.5-6.8c0-1.5,0.5-2.8,0.8-3.5l3.2,0.7
		c-0.4,0.7-0.8,1.6-0.8,2.9c0,2.1,1.4,3.1,2.8,3.1c1.8,0,2.6-0.9,4.2-3.3C12.3,52.2,14.5,51,17,51z M3.7,36.8V41h20v3.7h-20v4.2H0.3
		V36.8H3.7z M23.7,29.7v3.7H0.3v-3.7H23.7z M43.5,1.2v26.3h-5.1V1.2H43.5z M125.5,1c0.4,1,5,8.2,9.7,13.1c-6.5,7.7-9,12.1-9.9,13.4
		c-1.4-3.1-6-9.5-9.6-13.3C117.5,12.6,123.3,4.9,125.5,1z M155.3,1.1v26.3h-5.1V1.1H155.3z M100.4,1.1v26.3h-5V1.1H100.4z
		 M217.3,1.1v26.3h-5V1.1H217.3z M275.5,1.1v26.3h-5.1V1.1H275.5z M183.9,1.1c3.3,0,6,2.7,6,6c0,1.1-0.3,2.1-0.8,3
		c0.5-0.1,1.1-0.2,1.6-0.2c3.3,0,6.6,2.6,6.6,5.9c0,3.3-3.3,6-6.6,6c-3,0-6-2.1-6.4-4.9c-0.3,0.1,0,0-0.3,0c0.1,9.5,8.7,9.5,8.7,9.5
		l0,0l0,0.9h-17.5v-0.9c8.4-0.4,8.3-8.6,8.3-9.5c-0.2,0,0,0-0.2,0c-0.5,2.8-3.4,4.9-6.4,4.9c-3.3,0-6-2.7-6-6c0-3.3,2.7-6,6-6
		c0.6,0,1.2,0.1,1.8,0.3c-0.5-0.9-0.8-1.9-0.8-3.1C177.9,3.8,180.6,1.1,183.9,1.1z M68.6,1.6l0.1,0.6c1.1,3.5,8.3,9.8,8.3,9.8
		s4.6,4.1,0.7,8.2c-5.5,3.7-8.5-2.2-8.6-2.4c0,0-1,8.6,8,8.6c0,0.5,0,0.8,0,0.8l0,0H60.1v-0.8c0,0,8.3,0.4,8.1-8.6c0,0,0,0,0,0
		c-0.1,0.2-3.1,6-8.6,2.4c-3.9-4.1,0.7-8.2,0.7-8.2s7.2-6.3,8.3-9.8l0,0L68.6,1.6z M244.1,6.1c0.3-0.3,1.4-5.6,6.7-5.1
		c5.3,0.5,5.3,5.8,4.6,7.4c-1.6,4.5-9.9,13.1-11.4,18.6c-1.8-5.9-9.8-14.4-10.7-17c-2-4-0.6-8.2,4-9C242,0.3,244.1,6.1,244.1,6.1z
		 M0.7,13.9l3.2,0.7c-0.3,0.6-0.5,1.1-0.5,2.2c0,2.5,2.3,5.1,8.7,5.1c6.3,0,8.5-2.4,8.5-5.2c0-0.9-0.2-1.7-0.4-2.3l3.1-0.4
		c0.3,0.7,0.6,1.9,0.6,3.4c0,5.3-4.4,8.4-11.6,8.4c-9,0-12.2-4.7-12.2-8.9C0.1,15.4,0.4,14.3,0.7,13.9z M23.7,0.6v10H0.3V1h3.2v5.9
		h6.4V1.4H13v5.5h7.4V0.6H23.7z"/>
</g>
</svg>
