<?xml version="1.0" encoding="utf-8"?>
<!-- Generator: Adobe Illustrator 24.1.2, SVG Export Plug-In . SVG Version: 6.00 Build 0)  -->
<svg version="1.1" id="Layer_1" xmlns="http://www.w3.org/2000/svg" xmlns:xlink="http://www.w3.org/1999/xlink" x="0px" y="0px"
	 viewBox="0 0 70 40" style="enable-background:new 0 0 70 40;" xml:space="preserve">
<style type="text/css">
	.st0{fill-rule:evenodd;clip-rule:evenodd;fill:#346275;}
</style>
<desc>Created with Sketch.</desc>
<g id="Footer">
	<g id="hipay">
		<g id="logo">
			<path id="Fill-1" class="st0" d="M18,0.2c1.1,0.4,1.6,1.2,1.2,2.4c-1,3.5-2,7-2.9,10.6c0,0.1-0.1,0.3-0.1,0.5
				c1-0.3,1.8-0.7,2.6-1.1c1.5-0.7,2.9-1.4,4.4-2.2c0.9-0.5,1.6-0.4,2.2,0.1c0.6,0.5,0.7,1.3,0.4,2.2c-1.1,2.9-2.2,5.7-2.9,8.7
				c-0.2,0.9-0.4,1.8,0.1,2.7c0.4,0.6,0,1.5-0.5,1.9c-0.6,0.5-1.4,0.5-2,0.1c-0.9-0.5-1.2-1.4-1.3-2.4c-0.1-1.7,0.3-3.3,0.8-5
				c0.3-1.1,0.7-2.2,1.1-3.4c-1.9,0.9-3.7,1.6-5.6,2.3c-0.3,0.1-0.4,0.4-0.4,0.6c-0.5,2.2-1,4.4-1.5,6.7c-0.3,1.2-1.1,1.8-2.2,1.6
				c-1-0.2-1.5-1.2-1.2-2.3c0.4-1.7,0.7-3.5,1.1-5.3c-0.8,0.2-1.5,0.3-2.2,0.4c-0.8,0.1-1.7,0.3-2.5,0.4c-0.4,0-0.6,0.2-0.6,0.6
				c-0.2,1.3-0.5,2.6-0.7,3.9c-0.1,0.8-0.5,1.4-1.3,1.6c-0.7,0.2-1.3,0-1.8-0.5C1.7,25,1.6,24.5,1.6,24c0.2-1.2,0.4-2.4,0.6-3.5
				c0.1-0.3,0-0.5-0.3-0.5c-0.9,0-1.5-0.5-1.9-1.3v-1c0.3-1,1-1.5,2.1-1.4c0.9,0.1,0.9,0.1,1.1-0.7c1-4.1,2.2-8.1,3.6-12.1
				C6.9,3.1,7,2.7,7.2,2.3c0.4-0.9,1.5-1.3,2.4-1c1,0.4,1.5,1.3,1.2,2.3c-0.5,1.6-1.1,3.1-1.5,4.7c-0.7,2.3-1.4,4.6-2,7
				C7,16.1,7,16.1,7.9,16c1.1-0.2,2.3-0.5,3.4-0.7c0.5-0.1,0.8-0.4,1-0.9c1-3.9,2-7.7,3.2-11.5c0.2-0.6,0.3-1.2,0.6-1.7
				c0.3-0.5,0.6-0.9,1.3-0.9C17.5,0.2,17.7,0.1,18,0.2"/>
			<path id="Fill-7" class="st0" d="M23.1,5.9C23.1,4.9,24,4,25,4c1.1,0,2,0.9,2.1,2c0,1-0.9,2-1.9,2C24.1,7.9,23.1,7,23.1,5.9"/>
			<path id="Fill-11" class="st0" d="M45.4,20.8c0,0.1,0,0.1-0.1,0.2c-0.9,0.9-1.9,1.8-3.2,2.3c0-1.9,2.6-5.9,4.6-6.8
				C46.2,18,45.7,19.4,45.4,20.8 M69,13.4c-0.6-1.2-2.2-1.3-3-0.2c-0.1,0.2-0.3,0.4-0.4,0.6c-1.8,2.9-3.7,5.7-6.3,8
				c-0.6,0.5-1.2,1-1.9,1.3c-0.3,0.1-0.5,0.1-0.5-0.3c0.1-1,0.1-1.9,0.6-2.8c0.9-1.5,1.5-3.2,1.9-4.9c0.2-1.1-0.2-2-1.1-2.3
				c-0.9-0.3-1.7,0.1-2.2,1.1c-0.7,1.5-1.3,3-1.8,4.5c-0.1,0.3-0.2,0.6-0.4,0.9c-1.3,1.8-2.9,3.1-5,3.8c-0.3,0-0.2-0.3-0.2-0.4
				c0.2-2.4,1.1-4.6,2-6.7c0.4-1,0.3-1.7-0.5-2.4c-0.5-0.4-1-0.7-1.6-0.8c-1.8-0.5-3.3,0.2-4.7,1.3c-2.2,1.8-3.8,4.1-4.8,6.7
				c-0.4,0.9-0.6,1.9-0.5,2.9c0.2,1.9,1.5,3.1,3.4,3.1c1.1,0,2.1-0.5,3-1.1c0.2-0.2,0.4-0.2,0.6,0.1c0.7,1,1.8,1.3,2.9,1.1
				c1.7-0.3,3.2-1,4.6-1.9c0.4-0.3,0.5-0.4,0.8,0.1c0.5,0.9,1.2,1.4,2.2,1.6c1.2,0.3,2.3-0.1,3.4-0.6c0.7-0.4,1.3-0.9,1.9-1.3
				c0.1,0.3-0.1,0.5-0.1,0.7c-0.6,1.8-1.2,3.7-1.8,5.5c-0.7,2.1-1.2,4.3-1.6,6.5c-0.2,1.2,0.2,1.9,1.2,2.3c0.3,0.1,0.6,0,0.9,0.1
				c0.9-0.1,1.3-0.5,1.5-1.5c0.9-5.3,2.8-10.4,4.6-15.4c1-2.7,2.1-5.3,3-8.1v-1C69,13.7,69.1,13.5,69,13.4"/>
			<path id="Fill-13" class="st0" d="M42.1,9c-0.4,0.6-0.9,1.1-1.5,1.5c-2.3,1.7-4.9,2.7-7.7,3.8c0.7-2.9,1.3-5.7,1.9-8.4
				c0.1-0.2,0.1-0.4,0.4-0.4c1.8-0.2,3.7-0.1,5.5,0.4C41,6,41.3,6.1,41.6,6.3C42.5,7,42.7,8,42.1,9 M44.6,4.4
				c-1-1.2-2.4-1.8-3.9-2.1C37,1.5,33.4,2,29.7,2.8c-0.8,0.2-1.3,0.9-1.3,1.7c0,0.8,0.5,1.5,1.3,1.7c0.4,0.1,0.8,0,1.3-0.1
				c-0.6,2.7-1.3,5.4-1.8,8c-0.2,1.1-0.6,1.7-1.7,1.8c-0.8,0.1-1.2,0.8-1.2,1.6c0,0.8,0.4,1.5,1.1,1.7c0.5,0.1,0.5,0.4,0.4,0.8
				c-0.4,1.5-0.7,2.9-1.1,4.4c-0.3,1.1,0.2,2.2,1.1,2.4c1.1,0.3,2.1-0.3,2.4-1.5c0.5-2.1,1.1-4.1,1.5-6.2c0.1-0.6,0.4-0.9,1-1
				c3.2-1.1,6.4-2.3,9.2-4.2c1.3-0.8,2.4-1.8,3.2-3.2C46.4,8.6,46.2,6.2,44.6,4.4"/>
		</g>
	</g>
</g>
</svg>
