<?xml version="1.0" encoding="utf-8"?>
<!-- Generator: Adobe Illustrator 24.1.2, SVG Export Plug-In . SVG Version: 6.00 Build 0)  -->
<svg version="1.1" id="Layer_1" xmlns="http://www.w3.org/2000/svg" xmlns:xlink="http://www.w3.org/1999/xlink" x="0px" y="0px"
	 viewBox="0 0 46 40" style="enable-background:new 0 0 46 40;" xml:space="preserve">
<style type="text/css">
	.st0{fill-rule:evenodd;clip-rule:evenodd;fill:#346275;}
</style>
<desc>Created with Sketch.</desc>
<g id="Footer">
	<g id="ideal">
		<g id="logo">
			<path id="Fill-4" class="st0" d="M25.8,2.7c5.1,0,9.4,1.4,12.3,4c3.3,3,5,7.4,5,13.3c0,11.6-5.7,17.3-17.3,17.3H2.7V2.7H25.8z
				 M26.3,0.1H0V40h26.3v0c5.8-0.1,10.3-1.5,13.5-4.3c3.9-3.3,5.9-8.6,5.9-15.7c0-3.4-0.5-6.4-1.6-9c-1-2.5-2.5-4.6-4.3-6.3
				C36.5,1.8,31.9,0.2,26.3,0.1L26.3,0.1z"/>
			<path id="Combined-Shape" class="st0" d="M5.1,34.7V22.5h7.3v12.2H5.1z M13,16.5c0,2.3-1.9,4.2-4.2,4.2c-2.3,0-4.2-1.9-4.2-4.2
				c0-2.3,1.9-4.2,4.2-4.2C11.1,12.3,13,14.2,13,16.5z"/>
			<path id="Fill-7" class="st0" d="M15.8,20.3h1c0.5,0,0.9,0,1.2-0.1c0.4-0.1,0.7-0.3,1-0.6c0.3-0.3,0.6-0.7,0.7-1.2
				c0.1-0.4,0.2-0.9,0.2-1.5c0-0.6-0.1-1.2-0.2-1.6c-0.2-0.4-0.4-0.8-0.7-1.1c-0.3-0.3-0.6-0.5-1-0.6c-0.3-0.1-0.7-0.1-1.3-0.1h-1V6
				h9.3h-0.4c7.8,0,16,3.1,16,14.4c0,12-8.3,14.4-16,14.4h0.4h-9.3V20.3z M15.6,14.6h0.6c0.6,0,1,0,1.2,0.1c0.3,0.1,0.5,0.2,0.6,0.3
				c0.2,0.2,0.3,0.4,0.4,0.7c0.1,0.3,0.1,0.7,0.1,1.2c0,0.5,0,1-0.1,1.3c-0.1,0.3-0.2,0.5-0.4,0.7c-0.1,0.1-0.3,0.2-0.6,0.3
				c-0.2,0-0.5,0.1-0.8,0.1h-1V14.6z M21.6,20.3h5.3v-1.2H23v-1.9h3.5v-1.2H23v-1.5h3.7v-1.2h-5.1V20.3z M34.7,20.3l-2.8-6.9h-1.5
				l-2.7,6.9h1.5l0.6-1.6h2.8l0.6,1.6H34.7z M32.1,17.6h-1.9l0.9-2.6L32.1,17.6z M35.8,20.3h4.9v-1.2h-3.5v-5.7h-1.4V20.3z"/>
		</g>
	</g>
</g>
</svg>
