<?xml version="1.0" encoding="utf-8"?>
<!-- Generator: Adobe Illustrator 24.1.2, SVG Export Plug-In . SVG Version: 6.00 Build 0)  -->
<svg version="1.1" id="Layer_1" xmlns="http://www.w3.org/2000/svg" xmlns:xlink="http://www.w3.org/1999/xlink" x="0px" y="0px"
	 viewBox="0 0 159 40" style="enable-background:new 0 0 159 40;" xml:space="preserve">
<style type="text/css">
	.st0{fill-rule:evenodd;clip-rule:evenodd;fill:#346275;}
</style>
<desc>Created with Sketch.</desc>
<g id="Footer">
	<g id="ing">
		<g id="Group-2">
			<path id="Combined-Shape" class="st0" d="M1,5.8H0V4.6h15.1v1.2h-0.9c-1.2,0-2.1,0.3-2.6,0.8c-0.6,0.6-0.8,1.5-0.8,3.1v19.6
				c0,2.7,0.6,3.9,3.9,3.9l0.5,0v1.2H0v-1.2h0.5c3.3,0,3.9-1.2,3.9-3.9V9.7c0-1.6-0.3-2.5-0.8-3.1C3,6,2.2,5.8,1,5.8z M49.1,24.4
				c0,0-0.3-1.2-0.3-1.9v-8.9c-0.1-5.2,0.7-7.8-3.9-7.8V4.6h10.5v1.2c-4.7,0-4.1,2.6-4.1,7.8v20.9l-1.5,0L27.2,10.7
				c0,0,0.3,1.2,0.3,1.9v14.6c-0.1,5.3,0.5,6,4,5.9v1.2H20.5v-1.2c3.4,0,4.1-0.5,4.1-6.4v0.4V12.7l0-2.3c0.1-3-1-4.7-4.3-4.7V4.6
				h10.1L49.1,24.4z M87.1,4l0.8,10.1h-1.1l-0.1-0.3c-0.6-2.2-1.5-3.5-3.2-4.8c-2-1.6-5-2.7-7.5-2.7c-2.9,0-5.3,1-7.2,2.9
				c-2.4,2.4-3.5,6-3.5,10.3c0,4,1.2,7.5,3.6,10c2.1,2.1,4.8,3.2,7.8,3.2c2.1,0,3.7-0.6,5.9-2v-7.2c0-2.8-0.6-3.3-3.6-3.4l-0.4,0
				v-1.2h13.2v1.2l-0.4,0c-2.7,0.1-3.1,0.6-3.1,4v7.8l-0.7,0.4c-4,2.2-6.7,2.8-11.3,2.8c-5.5,0-9.3-1.2-12.7-4.1
				c-3.4-2.9-5-6.3-5-10.5C58.5,16,60.1,12,63,9c3.2-3.2,7.7-5,12.7-5c2.6,0,5.6,0.6,7.9,1.6c0.5,0.2,1,0.3,1.2,0.3
				c0.7,0,0.9-1,1-1.6L85.9,4H87.1z"/>
			<path id="Combined-Shape_1_" class="st0" d="M157.1,19.8c1,3.1,1.4,6.7,0.7,9.9c-0.1,0.7-0.3,1.3-0.6,2c-0.3,1-0.9,1.9-1.5,2.8
				c-0.7,1.1-1.7,2-2.7,2.8c-2,1.4-4.5,2-7,1.6c-0.6,0.5-1.4,0.5-2.1,0.6h-6.6c-0.1-0.5,0.3-0.6,0.2-1.1c0.1-0.5,0.2-1,0.7-1.2
				c0,0,0,0,0,0c0.2,0.4,0.4,0.9,0.6,1.3c0.3-0.2,0.5-0.6,0.6-0.9c-0.1-0.4-0.4-0.7-0.7-1l-0.1,0c0.3-0.2,0.4-0.5,0.6-0.8
				c0.2,0.3,0.5,0.7,0.9,0.5c0.1-0.1,0.3-0.1,0.3-0.3c0-0.1,0-0.2-0.1-0.2c-0.6-0.4-1.2-1.6-2-1c-0.8,0.9-1.5,1.8-1.6,2.9l-0.2,1.7
				c-0.4,0-0.8,0.1-1.2,0c0.1-0.8-0.1-1.7,0-2.5c0.2-0.1,0.4,0.2,0.6,0.3c0,0.1,0.1,0.1,0.1,0c0.1-0.3,0.5-0.5,0.2-0.8
				c-0.1-0.3-0.4-0.5-0.6-0.7c0.1-0.3,0.3-0.6,0.5-0.8c0.1,0,0,0.1,0.1,0.1c0.1,0.2,0.4,0.2,0.6,0.2c0.1,0,0.3,0,0.2-0.2
				c0-0.2-0.2-0.3-0.1-0.5c0.3-0.1,0.8,0.3,1-0.1c0,0,0-0.1,0.1-0.1c-0.6-0.4-1.2-0.7-2-0.5c-0.4-0.1-0.5,0.4-0.8,0.6
				c0,0-0.1,0-0.1,0.1c-0.7-0.1-1.4,0.1-2.1,0.1l-1.2,1.8c0,0.6-0.1,1.4,0.2,1.9c0.2,0.4,0.4,0.7,0.6,1h-12.7
				c0.2-0.4,0.5-0.8,0.8-1.1c0,0.1,0.2,0.1,0.3,0.2l0.9,0.2c0.3-0.1,0.6-0.2,0.9-0.4c-0.5-0.3-1.1-0.5-1.7-0.8
				c0.1-0.7,0.3-1.6-0.2-2.1c-0.3-0.2-0.7-0.3-1.1-0.3c-0.4,0.2-0.9,0.4-1.2,0.8c-0.3-0.4-0.7-0.7-1.2-0.8c0-0.2,0-0.3,0.1-0.5
				c0-0.2,0.1-0.3,0.1-0.5c0.7-0.4,1.5,0,2.2,0.2c0.2,0,0.3,0.1,0.4,0c0-0.1-0.2-0.1-0.2-0.3c-0.6-1-1.8-1.1-2.9-0.9
				c-0.5,0-0.5,1.1-1,0.6c-0.4-0.1-0.7,0.2-1.1,0.2l-0.8,0.3c-0.1,0.1-0.2,0.3-0.2,0.4c-0.4,0.7-0.7,1.3-1.1,2
				c0,0.6-0.2,1.4,0.1,1.9c0.2,0.3,0.4,0.7,0.6,1H97.6c-0.6-0.8-0.9-1.8-0.7-2.8c0.1-0.4,0.4-0.9,0.8-1.2c0-0.3,0-0.6,0.1-0.9
				c0.2-0.4,0.4-0.7,0.8-1c0.5-0.3,1.2-0.5,1.8-0.3c0.7-0.8,1.9-1,2.9-0.7c0.2,0.1,0.5,0.2,0.7,0.4c0.5-1,0.7-2.2,1.1-3.3
				c0.1-0.1,0.1-0.3,0.2-0.4c0.4-0.9,0.7-1.9,1.2-2.8c-0.8-2.1-1.4-4.2-1.8-6.5c0-0.1,0.1-0.2,0.2-0.3c0.1-0.1,0.2-0.2,0.3-0.2
				c0.2-0.4,0.3-0.9,0.5-1.4c-0.2,0-0.4,0.2-0.6,0.3c-0.1,0.2-0.3,0.4-0.4,0.6c-0.1,0-0.1-0.3-0.2-0.4c0-0.6-0.4-1.3,0.1-1.8
				l0.5-0.4c0-0.4,0.1-0.9,0.1-1.3h-0.1c-0.3,0.3-0.8,0.5-0.8,0.9h0l0-1.9c0.2-0.1,0.4-0.3,0.6-0.4c-0.1-2.1,0.1-4.2,0.6-6.1
				c0.2-0.5,0.5-0.8,0.8-1.2c0-0.5,0-1.1,0.1-1.6c0.3-0.2,0.7-0.6,1-0.8c-0.2-0.1-0.4-0.1-0.6-0.2c0.3-0.8,1-1.5,1.6-2.2
				c0.3-0.2,0.6-0.5,0.9-0.6c0.1,0,0.2,0.1,0.2,0.1c0.6,0.1,1.2,0.3,1.9,0.3c-0.2-0.3-0.6-0.7-1-0.7l0.1,0c0.6-0.3,1-0.4,1.6-0.5
				c0.1,0.5,0.6,0.9,0.8,1.3l0.4,0.3c-0.1-0.6,0.2-1.4-0.4-1.9c0-0.1,0.1-0.1,0.2-0.1c0.7,0.3,1.4,0.7,2.1,1.1
				c0.4-0.2,0.8-0.4,1.3-0.6c-0.1,0.6-0.4,1.3-0.4,2c0.3-0.2,0.5-0.6,0.8-0.9c0-0.4,0.4-0.8,0.5-1.1c0.5-0.1,1.3-0.2,1.8,0
				c-0.5,0.1-0.4,0.5-0.4,0.8l0,0c0.4-0.1,0.9-0.2,1.2-0.5c0.5,0.1,0.9,0.2,1.3,0.5c-0.4,0.2-0.8,0.3-1.1,0.7c0.6,0,1.2-0.1,1.7-0.1
				l0.3-0.2c1.5,0.9,1.9,2.5,2.5,3.9c-0.2,0-0.4-0.2-0.6-0.2c0.1,0.3,0.1,0.7,0.5,0.8c0.5,0,0.6,0.5,0.8,0.8c0.6,0.6,1.6,1,2,1.9
				c0.7,1.2,0.7,2.7,1.2,4c-0.3-0.3-0.8-0.2-1.1-0.5c0.1,0.4,0.3,0.8,0.6,1.1c0.3,0.2,0.7,0.3,1,0.4c0.4,0.6,0.5,1.3,0.6,2.1
				c-0.3-0.2-0.5-0.3-0.8-0.4l0,0c0,0.6,0.5,1.1,1,1.4c0,0.5,0,1,0.1,1.4c0.9,0.7,2.1,1.4,3.3,1.5c0.2,0,0.5,0,0.7,0
				c0.2,0,0.5-0.1,0.7-0.1c1-0.1,1.9-0.4,2.7-0.9c-0.1-0.7,0.1-1.3,0.7-1.7c0.7-0.8,1.9-0.7,2.8-0.5c1.5,0.6,2.8,1.7,3.7,3.1
				c0.8,1.1,1.5,2.4,2,3.5c0.8,2,1.3,4.1,1.4,6.4c0,0.1,0,0.1,0,0.2c0.1,1.6-0.1,3.2-0.4,4.7c-0.1,0.3-0.1,0.5-0.2,0.8
				c0,0.2,0.2,0.2,0.3,0.3c1.8,0.5,3.5,0,4.9-1.1c0.4-0.3,0.9-0.7,1.2-1.2c1-1.1,1.6-2.3,2.1-3.6c1-3.2,0.8-6.9-0.2-9.9
				c-0.1-0.2-0.1-0.3-0.2-0.5c-1.2-3.3-4.1-6.8-7.4-8.3c-1.4-0.2-2.6,0.4-4,0.1c-1-0.3-1.9-0.8-2.6-1.6l0-0.1
				c0.5,0.1,1.1,0.2,1.6,0.4c0-0.2-0.2-0.4-0.3-0.7c0.6-0.1,1.2-0.3,1.8-0.3c-0.3-0.7-1.2-0.4-1.7-0.7c-0.2,0-0.4-0.1-0.6,0
				c0,0.2,0.2,0.4,0.2,0.7c-0.3,0.1-0.6-0.1-0.9-0.2c-0.2,0-0.5-0.1-0.6,0.1c-0.6-0.8-0.8-1.9-1.8-2.3l0-0.1
				c1.7-0.4,3.2-1.3,5.1-1.1c0.2,0,0.4,0.1,0.6,0.2L144,5.9c0.4,0.4,1,0.8,1.6,0.7l0,0c0-0.3-0.2-0.6-0.4-0.9
				c0.6,0.1,1.1,0.7,1.5,1.1c0.9,1.5,2.3,3,3.8,4c2.7,1.7,4.5,4.6,5.8,7.3C156.7,18.7,156.9,19.2,157.1,19.8z M141,6.9
				c0.2,0.1,0.5,0.2,0.8,0.3c0.2-0.1,0.4-0.2,0.7-0.1c0.3,0.2,0.8,0,1.2,0c-0.4-0.3-0.8-0.5-1.2-0.7C142,6.4,141.6,6.8,141,6.9z
				 M121.6,10.2c-0.2,0.2-0.4,0.3-0.7,0.3c0.4-0.7,0.6-1.7,0.3-2.5c0.2-0.1,0.4-0.1,0.6-0.2l0,0l0.5-0.4c0.7-0.5,0.4-1.3,0.7-2
				c-0.3-0.5-0.4-1.2-0.9-1.6l0,0c-0.4-0.5-1.1-0.4-1.6-0.7c-0.7-0.2-1.2,0.2-1.7,0.6c-0.2,0-0.1,0.3-0.3,0.3
				c-0.1,0.3-0.3,0.7-0.4,1.1c-0.9-0.1-1.9,0-2.6,0.5c-0.4-0.3-0.9-0.3-1.3-0.5c-0.3-0.1-0.7,0.1-1-0.1c-0.4-0.4-0.4-1.1-1-1.2
				c-0.2-0.1-0.3-0.3-0.3-0.5c-0.4-0.1-0.8-0.3-1.1-0.3c-0.6-0.3-1.1,0.2-1.5,0.4c-0.2,0.1-0.4,0.1-0.6,0.2
				c-0.3,0.5-0.7,1.1-0.9,1.6c0.1,0.5,0.3,0.9,0.5,1.3c0.2,0.6,0.9,1.1,1.4,1.3c-0.3,0.9-0.3,2,0,2.9c0,0,0,0,0,0c0,0,0,0,0,0
				c-0.1,0-0.2,0-0.3,0h0c0.1,0.9,0.5,1.7,1.2,2.3c0.2,0.1,0.2,0.4,0.3,0.6c0.1,0.1,0.1,0.3,0,0.3c-1.5,0-2.7,0.3-3.9,1
				c-0.3,0.2-0.2,0.6-0.2,0.8c0.8-0.5,1.7-0.9,2.7-1.1c0.4,0,0.9-0.1,1.3,0l0,0.8c-1.1,0.6-2.3,0.9-3.3,1.9c0,0.3,0,0.6,0,0.9
				l0.8-0.7c0.8-0.6,1.7-1.2,2.6-1.5c0.3,0.3,0.5,0.6,0.8,0.8c0.6-0.4,1.2-0.6,1.8-0.8c0.3-0.2,0.9,0,1.1-0.4l0.2-0.8
				c0,0,0-0.1-0.1,0c-0.4-0.3-0.7-0.7-0.7-1.2c-0.2,0.1-0.3,0.1-0.5,0.1c-0.1,0-0.3-0.1-0.4-0.2c0-0.2-0.1-0.5,0.1-0.6
				c0.6-0.4,1.4-0.4,2.1-0.3c0.6,0.1,1.4,0,1.6,0.7c0,0.2,0,0.4-0.2,0.5c-0.2,0.1-0.4,0-0.6-0.1c-0.1,0.5-0.4,1-0.9,1.1l0.1,0.5
				c0.1,0.2,0.1,0.6,0.5,0.6c0.9,0.2,1.7,0.7,2.4,1.2c0.3-0.3,0.5-0.6,0.7-0.8c1.4,0.5,2.6,1.5,3.7,2.5l0-0.8
				c-1.1-1-2.3-1.6-3.5-2.2c0-0.3,0.1-0.5,0.1-0.8c1.5,0.1,2.9,0.5,4.1,1.3l0-0.7c-1.3-0.7-2.7-1.1-4.2-1.2
				c-0.1-0.1-0.1-0.2-0.1-0.3c0.7-0.1,1.3-0.9,1.5-1.6c0.4-0.4,0.9-0.9,0.8-1.6c0-0.1,0-0.1,0.1-0.2
				C121.6,10.5,121.6,10.3,121.6,10.2z M122.9,12.6l0.8-0.2l0.1-0.4c0.2-0.6-0.2-1.1-0.5-1.6L122.9,12.6z M137.4,33.3
				c0.3,0.1,0.6-0.1,0.8-0.2c0.2-0.1,0.4,0.1,0.6,0.2c0.1,0.1,0,0.3,0,0.4c0.6,0.2,1.1,0.4,1.6,0.7l0.2-0.2c0-0.4-0.3-0.7-0.6-0.9
				c-0.2-0.1-0.5,0-0.6-0.2c0.1-0.1,0.1-0.4,0.1-0.5c-0.3,0-0.5-0.1-0.8-0.2c-0.2,0-0.3-0.2-0.4,0C137.9,32.6,137.9,33.1,137.4,33.3
				z M142.6,33.8c0.3,0.6,0.9,1,1,1.7c0.2-0.2,0.3-0.4,0.4-0.6c0-0.2-0.2-0.2-0.3-0.3c-0.1-0.2,0-0.5,0.1-0.7
				c-0.1-0.3-0.4-0.7-0.7-0.9L142.6,33.8z M143.8,32.4l0.7,0.9c0.3-0.5,0.3-1.1,0.2-1.7c-0.1-0.1-0.2-0.3-0.4-0.2
				C144,31.7,144,32.1,143.8,32.4z M138.8,31.1c-0.1,0.2-0.2,0.4,0.1,0.5c0.6,0,1.4-0.3,1.8,0.2c0.2,0.1,0.1,0.4,0.1,0.5l0.8,0.6
				c0.1-0.4,0.2-0.7,0.2-1.2c-0.1-0.3-0.2-0.6-0.5-0.8c-0.5,0-0.8-0.6-1.4-0.5c-0.3-0.1-0.5,0.2-0.8,0.2
				C139,30.8,138.9,31,138.8,31.1z M139.2,29.8c0.4-0.1,0.6-0.5,1-0.5c0.6,0,1.1,0.3,1.5,0.8c0.2,0.1,0.2,0.5,0.5,0.5
				c-0.1-0.5,0.1-0.9,0-1.3c-0.4-0.6-1.4-0.1-1.7-0.9l-0.7,0c-0.5,0.1-0.4,0.7-0.4,1.1C139.3,29.5,139.2,29.6,139.2,29.8z
				 M139.1,26.8c0.1,0.3,0.3,0.7,0.5,0.7c0.5-0.2,1.4-0.4,2-0.1c0.2,0,0.2,0.3,0.2,0.4c0.3,0.2,0.7,0.3,1,0.5l-0.1-0.6
				c0-0.6-0.8-0.7-0.8-1.3c-0.6-0.2-1.3-0.3-2-0.1c-0.2,0.2-0.5,0.2-0.8,0.2C139,26.6,139,26.7,139.1,26.8z M138.5,25.6
				c0.2,0.2,0.5,0.2,0.8,0.2l0.8-0.3c0-0.1-0.2-0.2-0.2-0.4c0.2-0.3,0.5-0.1,0.8-0.2c0.4-0.1,0.8-0.4,1.2-0.2c0,0,0,0.1,0,0.2
				c-0.1,0.3,0.1,0.5,0.3,0.6c0.5,0.1,0.9,0.5,1.3,0.3c0-0.4-0.1-0.7-0.2-1.1c-0.4-0.1-0.7-0.4-1-0.5c-0.2,0.1-0.4,0.3-0.6,0.2
				c-0.7-0.2-1.6-0.6-2.3-0.2c-0.3,0.3-0.7,0.2-1.1,0.4C138.4,25,138.4,25.3,138.5,25.6z M138.1,23.5
				C138.1,23.5,138.1,23.5,138.1,23.5c0.1,0,0,0.2,0.2,0.2c0.2-0.1,0.5-0.3,0.7-0.4c0.6,0,1-0.6,1.6-0.6c1,0.2,2,0.4,2.9,0.9
				c-0.1-0.6-0.6-1.2-1.1-1.4c-0.3-0.1-0.5,0.1-0.7,0.2c-0.6,0.4-0.3-0.6-0.7-0.6c-0.6,0.2-1.2,0.4-1.8,0.3
				c-0.4,0.1-0.6,0.5-1.1,0.4C138,22.9,138,23.3,138.1,23.5z M138.1,21.6c0.2-0.1,0.5-0.1,0.7-0.3c0.6-0.6,1.5-0.2,2.3-0.2
				c-0.1-0.3-0.3-0.5-0.5-0.7c-0.3-0.1-0.5-0.2-0.8-0.2c-0.6-0.4-1.1,0.3-1.5,0.6C138,21,138,21.4,138.1,21.6z M137.8,18.7
				c0,0.2-0.2,0.5,0,0.7c0.2-0.3,0.6-0.2,0.9-0.4c0.8-0.1,1.6,0.2,2.4,0.4c-0.2-0.3-0.3-0.7-0.5-0.9c-0.4-0.1-1.1,0.2-1.2-0.4
				c-0.3-0.2-0.7-0.1-0.9,0C138.2,18.2,137.9,18.4,137.8,18.7z M112.8,18.9l0.6-0.5c0,0,0.1,0,0.1,0l0,1c0.3,0.3,0.6,0.3,1,0.4
				c0-0.3,0.2-0.5,0.4-0.7c0.1-0.2,0-0.5,0.2-0.6l0.1,0.1c0.1,0.3,0,0.7,0.2,0.9c0,0.1,0,0.3,0.1,0.5c0.4,0,0.8-0.1,1.1-0.2
				c0-0.4,0.1-0.6,0.2-1c0.1-0.1-0.1-0.3,0.1-0.3c0.1,0.3,0.4,0.6,0.5,0.9c0.5-0.5,0.8-1.3,0.9-2c-0.2-0.2-0.4-0.2-0.6-0.4
				c-1.6-0.5-3.6-0.6-5.1,0.2C112.2,17.7,112.4,18.4,112.8,18.9z M106.1,11.4l0.5,1.7c0-0.9,0.4-1.7,0.3-2.7l0.4-0.6l-0.8,0.3
				C106.3,10.4,106.1,10.9,106.1,11.4z M106.5,8.5l0.7-0.4V7c-0.3,0.2-0.5,0.5-0.7,0.8L106.5,8.5z M124.8,15.5
				c0.4,0.4,0.7,1,1.4,0.8c0-0.3-0.2-0.5-0.3-0.7c-0.2-0.2-0.2-0.8-0.6-0.6c-0.3-0.2-0.3-0.4-0.5-0.7
				C124.7,14.7,124.8,15.2,124.8,15.5z M124.9,18.2c0.1,0.2,0.2,0.4,0.3,0.6c0.3,0.2,0.6,0.1,0.9,0.1c0.3-0.1,0.5,0.2,0.7,0.1
				c-0.3-0.2-0.5-0.6-0.8-0.8C125.7,17.9,125.3,18.2,124.9,18.2z M123.2,20.2c0.4,0.5,1.1,0.3,1.7,0.3v-0.1l-0.9-0.8
				C123.7,19.7,123.5,20,123.2,20.2z M121,21.1c0.4,0.5,0.9,0.8,1.5,0.7c-0.3-0.3-0.7-0.6-0.7-1.1c0.1-0.8-0.8-0.9-1.3-1.3
				C120.7,19.9,120.7,20.6,121,21.1z M119.6,23c0.3,0.4,1.1,0.3,1.5,0.2c-0.2-0.3-0.8-0.5-0.9-0.9c-0.1-0.6-0.2-1.3-0.4-1.9
				C119.5,21.2,119.1,22.1,119.6,23z M98,36.4c-0.1,0.7,0,1.4,0,2.1c0.1,0.2,0.4,0.5,0.7,0.5l0-0.5c0.1-0.7-0.2-1.4,0.1-1.9
				c0.3,0.1,0.5,0.2,0.7,0.3c0.1-0.6,0-1.3-0.6-1.7L98,36.4z M100.3,35.4c-0.4,1.1-0.6,2.4-0.2,3.6c0.3-0.2,0.5-0.3,0.7-0.6
				c0-0.9-0.2-1.8,0.4-2.5c0.5,0.1,0.8,0.6,0.9,1c0.3-0.4,0.4-0.9,0.3-1.4c0-0.4-0.4-0.3-0.7-0.5c0.1-0.3,0.1-0.7,0.4-0.9l-1.1,0.1
				C100.7,34.5,100.4,34.9,100.3,35.4z M102.6,38.6c0,0.1,0,0.2,0.1,0.3c0.1-0.8,0.8-1.3,1.1-2c0.2-0.2,0.2-0.6,0.4-0.7
				c0.4,0,0.6,0.3,1,0.3c0.1,0.1-0.1,0.2-0.1,0.3c-0.1,0.6-0.3,1.2-0.3,1.8h0.1c0.5-0.5,0.8-1.1,1.2-1.7l0.1-0.5
				c0.1-0.6-0.6-1-1.1-1.3l0.4-0.5l-0.6-0.2c-0.7,0.1-1.2,0.3-1.7,0.8C102.7,36.2,102.6,37.3,102.6,38.6z M105.1,33.1
				c0.2,0.1,0.4-0.1,0.6,0c0.9,0.3,1.7,0.6,2.4,1.4l0.8,1.9l0.4-1.2l-0.3-0.7c-0.2-0.5-0.8-0.4-1.2-0.4c-0.2-0.2,0-0.4,0.1-0.6
				c0.2-0.7-0.6-0.6-0.9-0.9c0-0.4-0.5-0.3-0.7-0.3l-0.1-0.1c-0.1-0.1-0.2-0.1-0.3,0c0,0-0.1,0,0-0.1l-0.2,0
				C105.3,32.4,105.1,32.7,105.1,33.1z M105.6,30.9c0,0.1,0.1,0.2,0.2,0.3c0.4-0.1,0.8-0.4,1.3-0.2c0.6,0.5,1.3,1.1,2,1.4l0.3,0
				c0.2,0.1,0.4,0.1,0.5,0.3c0.1,0.3-0.2,0.4-0.2,0.6c0.4,0.3,0.3,0.9,0.5,1.2l0.7-0.9c-0.2-0.4,0-1.1-0.6-1.1
				c-0.2-0.1-0.3-0.3-0.3-0.5c-0.4-0.4-0.9-0.5-1.3-0.9c-0.3-0.3-0.5-0.7-0.9-0.8c-0.3-0.2-0.6-0.2-0.9-0.3
				C106.1,29.9,106,30.6,105.6,30.9z M106.5,29.1l0.1,0.2c0.5,0,0.9-0.2,1.3-0.2c0.3,0.2,0.7,0.2,1,0.3c0.3,0.3,0.5,0.7,0.9,1
				c0.8,0.1,1.2,0.9,1.4,1.5v-0.3c0.1-0.4,0-0.9-0.2-1.2c-0.2-0.2-0.5-0.3-0.7-0.5c0-0.1,0-0.2,0-0.3c-0.3-0.3-0.7-0.5-1.1-0.7
				c-0.5-0.7-1.4-0.5-2.2-0.7L106.5,29.1z M120.2,32.5L120.2,32.5c0.6-0.4,1.3-0.6,1.9-0.8c0.2,0.1,0.1,0.3,0.2,0.3
				c0.4-0.2,0.9-0.1,1.3-0.3c0.5,0,0.9,0,1.3,0.2c0.3,0.4,0.9,0.4,1.3,0.7l-0.1-0.7c-0.9-1-2.2-1.1-3.5-1.1l0-0.1
				c-0.3,0-0.6,0.1-0.9,0.2c-0.4,0-0.8,0.2-1.2,0.3C120.5,31.7,120.4,32.1,120.2,32.5z M120.9,34.1h0.1c0.5-0.3,1.2-0.1,1.7-0.4
				c0.3-0.1,0.3,0.2,0.5,0.3c0.5,0.3,0.5,1.1,1.2,0.9c0.8,0.4,0.6,1.3,0.6,2l0.7-0.4c-0.1-0.4,0.1-0.8-0.1-1.1
				c-0.2-0.4-0.7-0.4-0.9-0.8c0.3-0.5-0.4-0.7-0.5-1l0,0l1,0.1c0.3,0.2,0.5,0.6,0.6,0.9c0.8,0.1,1,1,1.2,1.6
				c0.2-0.4,0.2-0.8,0.4-1.2c0-0.3-0.4-0.3-0.6-0.4c-0.1-0.5-0.3-0.9-0.7-1.2c-0.9-0.2-1.6-0.7-2.5-0.7l-0.8,0.2
				c-0.4,0.1-0.9,0-1.2,0.3C121.1,33.3,121,33.8,120.9,34.1z M121.4,30.3l0.2,0.1c0.4-0.2,0.8-0.4,1.2-0.5c0.6-0.2,1.1,0.5,1.6,0.1
				c0.2-0.1,0.4,0.1,0.5,0.2c0.2,0.4,0.7,0.4,1.1,0.5c-0.2-0.5-0.4-1.3-1.1-1.3c-0.3-0.1-0.6-0.1-0.8-0.3c-0.7-0.8-1.2,0.7-2,0.3
				C121.8,29.6,121.5,29.9,121.4,30.3z M121.6,34.8c0.3,0.3,0.6,0.7,1.1,0.6c0.6,0.3,0.3,1,0.6,1.4l0.3-0.3l0,0l0,0l0,0
				c0.1-0.3,0-0.8-0.2-1.1c-0.2-0.1-0.5,0-0.7-0.1c0-0.3-0.2-0.4-0.4-0.6c-0.2-0.1-0.3,0-0.5,0L121.6,34.8z M127.3,30.8l0.1,0.3
				c0.1,1,0.8,1.9,0.4,2.9c0.3,0.2,0.4,0.5,0.5,0.8h0c0.2-0.8,0.1-1.6,0-2.5C128.5,31.6,127.8,31.2,127.3,30.8z M129.8,24.1
				c0,0.4,0.2,0.7,0.5,0.9c0.1-0.2,0.3-0.4,0.3-0.7c-0.1-0.4-0.3-0.8-0.7-1C129.8,23.6,129.8,23.8,129.8,24.1z M129.8,28.4
				c-0.1,0.4,0.4,0.5,0.6,0.7c0.2,0.2-0.1,0.3-0.1,0.5c0.4,0.5,0.6,1,0.6,1.6c0.1-0.6,0.4-1.1,0.4-1.7c0-0.4-0.7-0.3-0.6-0.8
				c0.2-0.5,0-0.9-0.2-1.3c0-0.1-0.1-0.2-0.2-0.2C130.2,27.6,129.8,27.9,129.8,28.4z M131.1,26.1l0.5,0.9c0.2,0,0.4-0.2,0.5-0.4
				c0.1-0.4-0.2-0.6-0.3-1c-0.1-0.2,0-0.5-0.2-0.7c-0.1-0.1-0.3-0.2-0.4-0.2L131.1,26.1z M131.7,23.7c0.4,0.2,0.8,0.6,1,1
				c0.3,0.9,0.8,1.8,1.2,2.7c0.1,0.6,0.3,1.2,0.4,1.8c0.1,0.2,0,0.5,0.3,0.5c0.1-0.7,0.2-1.4,0.2-2.1c-0.2-0.3-0.5-0.4-0.8-0.6v-0.1
				c0-0.2,0.2-0.3,0.4-0.3c0.1-0.1,0.3-0.2,0.2-0.4c-0.5-0.5-0.5-1.3-1.2-1.5c-0.3-0.1-0.3-0.4-0.4-0.6
				C132.7,23.8,132.2,23.7,131.7,23.7z M132.2,28.7c0.5,0.4,0.3,1.1,0.3,1.7c-0.1,0.4,0.4,0.1,0.5,0.3c0.3,0.4,0.1,1.1,0,1.5
				c0.3-0.4,0.5-0.7,0.7-1.1c0-0.2,0.2-0.2,0.2-0.4c0.1-0.3-0.2-0.1-0.4-0.2c-0.1,0-0.2-0.1-0.2-0.3c0.2-0.5,0-1-0.1-1.5
				c-0.1-0.4,0-0.9-0.1-1.2C132.8,27.9,131.9,28,132.2,28.7z M133,22.1c0.8,0.8,1.4,1.7,2.3,2.5c0-0.4,0-0.7,0-1.1
				c-0.1-0.3-0.4-0.4-0.6-0.6C134.1,22.9,133.7,22,133,22.1z M135.2,26.5c0,0.1,0.1,0.2,0.1,0.2c0.4,0.6,0.7,1.2,1,1.9
				c-0.1-0.7,0.4-1.5-0.2-2.1c-0.1-0.2-0.4-0.2-0.5-0.1L135.2,26.5z M113,28.2c0.6-0.2,1.2-0.4,1.7-0.7c0.3-0.5,0.9-0.9,0.9-1.5
				c-0.4,0.1-0.8,0-1.2,0.2c-0.2,0.4-0.4,0.9-0.9,1.2C113.5,27.7,113.2,28,113,28.2z M113.9,29.4l0.7,0.9c0.4,0.1,0.8,0.1,1.2-0.1
				l-0.3-0.8C115.1,29.5,114.5,29.4,113.9,29.4z M115.1,22.8l0.3,1.2c0.7-0.5,0.8-1.3,0.8-2.1C115.8,22.3,115.6,22.6,115.1,22.8z
				 M116.9,24.9c0,0.2,0.1,0.3,0.2,0.5c0.7,0.3,0.8,1.1,1.5,1.5c0.4,0.2,0.9,0,1.3-0.2c-0.3-0.3-0.6-0.5-0.9-0.9
				c-0.2-0.1-0.4-0.2-0.4-0.4L116.9,24.9z M117.5,29.3c0.3,0.4,0.7,0.5,1.2,0.6c-0.1-0.1,0,0,0.1-0.1l-0.6-1.2c-0.3,0-0.6,0.1-0.8,0
				C117.4,28.9,117.5,29.1,117.5,29.3z M118.5,23.6c-0.3-0.6-0.4-1.3-0.4-2c-0.3,0.3-0.6,0.5-0.8,0.9
				C117.1,23.2,118.1,23.3,118.5,23.6z M120.2,24.9c0.9,0.7,1.8,1.5,3.1,1.2c0.1-0.1,0.3-0.1,0.3-0.2c-0.4-0.2-0.8-0.4-1.2-0.7
				l-0.4-0.6h-0.2C121.3,24.8,120.8,24.9,120.2,24.9z M122.7,23.5c0.3,0.5,0.9,0.8,1.4,1.2c0.4,0.2,0.9,0.2,1.3,0.1
				c-0.4-0.3-0.8-0.7-1.1-1.1c-0.1-0.2-0.2-0.4-0.3-0.6C123.6,23.2,123.1,23.2,122.7,23.5z M125.4,22.6c0.6,0.4,1.5,0.8,2.3,0.6
				c0.1,0,0.3,0,0.3-0.1c-0.5-0.2-1.1-0.7-1.6-0.8c-0.3-0.5-0.7,0.1-1.1,0.1C125.3,22.4,125.4,22.5,125.4,22.6z M127.5,21.3
				c0.5,0.4,1.3,0.4,1.8,0.2c-0.4-0.2-0.7-0.4-1-0.7L127.5,21.3z M106.5,22.3c0.1,0.3,0.2,0.6,0.2,1c0.3-0.6,0.8-0.8,1.2-1.3
				c-0.3-0.2-0.6-0.3-0.9-0.3v0C106.9,21.8,106.6,22,106.5,22.3z M108.2,25.3l0.4-0.4c0.4-0.4,0.8-0.9,0.8-1.5c-0.3-0.2-0.7-0.1-1,0
				C108.3,24.1,108.2,24.7,108.2,25.3z M108.5,26.7c0.6,0,1.3,0.2,1.8-0.2l0.5-1.7c-0.2,0-0.3-0.1-0.5,0
				C109.9,25.5,109.3,26.3,108.5,26.7z M108.7,20.7c0.4,0.6,1.1,1.3,1.8,1.5c-0.1-0.8-0.8-1.3-1.1-2l0-0.2c-0.3-0.3-0.6-0.4-0.9-0.6
				C108.5,19.9,108.6,20.3,108.7,20.7z M110.9,26.7c0.5,0.1,1,0,1.5-0.1c0.7-0.2,1-0.9,1.2-1.4h-0.8l-0.9,0.9
				C111.6,26.2,111.3,26.5,110.9,26.7z M110.8,19.9c0.1,0.7,0.4,1.4,0.9,2l0.1-1.4L110.8,19.9z M113.9,23.5c0.1-0.5-0.1-1-0.2-1.5
				c-0.3-0.2-0.7-0.2-1-0.4C112.7,22.4,113.3,23,113.9,23.5z M110.7,8.4c0.8-0.1,1.7,0,2.5,0c0.2,0.1,0.4,0.3,0.5,0.5
				c0,1-0.3,2-0.4,3c-0.4,0.2-0.8,0.5-0.8,0.9c-0.3,0.1-0.7,0.3-1,0.5c-0.1-0.3-0.1-0.8,0.1-1.1c0.4-0.5,1.3-0.4,1.2-1.2
				c0.2-0.4,0-0.9,0-1.3c-0.1-0.3-0.2,0.1-0.3,0.1c-0.3,0.1-0.6,0.1-0.9-0.1c-0.2-0.2-0.4-0.4-0.5-0.6c-0.3-0.1-0.6-0.3-0.7-0.6
				L110.7,8.4z M113.3,6.7c0.4-0.1,0.8-0.4,1.3-0.3c-0.3,0.3-0.5,0.7-0.8,1.1l-1.3,0C112.7,7.2,113,6.9,113.3,6.7z M117.1,6.4
				c0.5-0.1,0.5,0.6,1,0.6c0.1,0.1,0.2,0.2,0.2,0.4c-0.3,0.1-0.7,0.1-1,0.1c-0.4-0.2-0.2-1-0.8-0.9c0-0.1-0.1-0.2,0-0.2
				C116.6,6.4,116.8,6.4,117.1,6.4z M116.7,8.9c0.2-0.3,0.6-0.4,0.9-0.4l2.4,0c0.1,0.1-0.1,0.2-0.1,0.3c-0.2,0.1-0.4,0.2-0.5,0.3
				c-0.3,0-0.3,0.4-0.5,0.5c-0.3,0.3-0.8,0.2-1.2,0.1c-0.1-0.1-0.3-0.2-0.4-0.4l-0.1,0.1c0.1,0.5,0.1,1.1,0.2,1.6l0.6,0.4
				c0,0.9,1,0.6,1.5,1.1c-0.1,0.3-0.3,0.6-0.5,0.8c-0.4-0.3-0.8-0.6-1.2-0.7c0-0.5-0.6-0.8-0.9-1c-0.1-0.9-0.1-1.8-0.3-2.7
				L116.7,8.9z M114.4,37.1c0.4-0.2,0.9-0.3,1-0.8c-0.1-0.1-0.3-0.3-0.4-0.3l-0.4,0.1c0-0.2,0.1-0.5,0.2-0.7l1.2-0.4
				c-0.2,0.6-0.2,1.3-0.3,1.9c0.1,0.9,0.3,2,0.7,2.8h-1.3C115.1,38.7,114.2,38.1,114.4,37.1z M117.3,36L117.3,36l1,0.8l0.1,0
				c-0.1,0.9-0.1,1.9-0.1,2.9h-1c-0.2-0.9-0.5-1.9-0.5-2.9C117,36.5,117.1,36.2,117.3,36z M119.3,36.9c0.2-0.2,0.3-0.6,0.6-0.7
				c0.3,0,0.5,0,0.7,0.2c0.3,0.4,0,0.9-0.1,1.3c-0.1,0.6-0.4,1.3-0.6,1.9H119L119.3,36.9z M133.4,36.6c0.2,0.3,0.3,0.6,0.6,0.8
				c0.3-0.4,0.3-1,0.2-1.4l-0.3-0.3c0.3-0.1,0.7-0.1,1-0.2c-0.1,0.5-0.4,0.9-0.4,1.5c0,0.8,0.2,1.7,0.2,2.5h-1
				c-0.4-0.8-0.7-1.6-0.7-2.5C133.2,36.9,133.2,36.7,133.4,36.6z"/>
		</g>
	</g>
</g>
</svg>
