<?xml version="1.0" encoding="utf-8"?>
<!-- Generator: Adobe Illustrator 24.1.2, SVG Export Plug-In . SVG Version: 6.00 Build 0)  -->
<svg version="1.1" id="Layer_1" xmlns="http://www.w3.org/2000/svg" xmlns:xlink="http://www.w3.org/1999/xlink" x="0px" y="0px"
	 viewBox="0 0 65 40" style="enable-background:new 0 0 65 40;" xml:space="preserve">
<style type="text/css">
	.st0{fill:#346275;}
</style>
<desc>Created with Sketch.</desc>
<g id="Footer">
	<g id="bancontact">
		<g id="logo">
			<path id="Shape" class="st0" d="M64.4,39.6v-0.9c0-0.1-0.1-0.2-0.3-0.2h-0.6c-0.2,0-0.3,0-0.3-0.1c0-0.1-0.1-0.2-0.1-0.5v-3.6h1
				c0.1,0,0.1,0,0.2-0.1c0,0,0.1-0.1,0.1-0.2v-1c0-0.1,0-0.1-0.1-0.2c0,0-0.1-0.1-0.2-0.1h-1v-1.3c0-0.1,0-0.1-0.1-0.2
				c0,0-0.1-0.1-0.2-0.1h0l-1.5,0.3c-0.1,0-0.1,0-0.2,0.1c0,0-0.1,0.1-0.1,0.2v1h-1c-0.1,0-0.1,0-0.2,0.1C60,32.9,59.9,33,59.9,33
				v0.8c0,0.1,0,0.1,0.1,0.2c0.1,0,0.1,0.1,0.2,0.1l1,0.2v3.6c0,0.4,0,0.8,0.1,1.1c0.1,0.3,0.2,0.5,0.4,0.6s0.4,0.3,0.6,0.3
				c0.3,0.1,0.6,0.1,0.9,0.1c0.2,0,0.3,0,0.5,0c0.1,0,0.3,0,0.5-0.1C64.3,39.8,64.4,39.7,64.4,39.6L64.4,39.6z M59.1,39.4v-1.1
				c0-0.1,0-0.1-0.1-0.2c0,0-0.1-0.1-0.2-0.1h0c-0.2,0-0.4,0-0.7,0.1c-0.2,0-0.5,0-0.8,0c-0.1,0-0.3,0-0.4-0.1
				c-0.1,0-0.2-0.1-0.3-0.2c-0.1-0.1-0.2-0.3-0.2-0.4c-0.1-0.2-0.1-0.4-0.1-0.7v-1c0-0.3,0-0.5,0.1-0.7c0.1-0.2,0.1-0.3,0.2-0.4
				c0.1-0.1,0.2-0.2,0.3-0.2c0.1,0,0.3-0.1,0.4-0.1c0.4,0,0.6,0,0.8,0c0.2,0,0.4,0,0.7,0.1h0c0.1,0,0.1,0,0.2-0.1
				c0,0,0.1-0.1,0.1-0.2v-1.1c0-0.1,0-0.2-0.1-0.2c0,0-0.1-0.1-0.2-0.1c-0.2,0-0.4-0.1-0.7-0.1c-0.3,0-0.6-0.1-1-0.1
				c-0.9,0-1.6,0.3-2.1,0.8c-0.5,0.5-0.8,1.3-0.8,2.3v1c0,1,0.3,1.8,0.8,2.3c0.5,0.5,1.2,0.8,2.1,0.8c0.4,0,0.7,0,1-0.1
				c0.3,0,0.5-0.1,0.7-0.1c0.1,0,0.2-0.1,0.2-0.1C59.1,39.6,59.1,39.5,59.1,39.4L59.1,39.4z M51.1,38.1c-0.1,0.1-0.3,0.1-0.5,0.2
				c-0.2,0.1-0.3,0.1-0.5,0.1c-0.3,0-0.5,0-0.6-0.1c-0.1-0.1-0.2-0.2-0.2-0.5v-0.1c0-0.1,0-0.3,0-0.4c0-0.1,0.1-0.2,0.2-0.3
				c0.1-0.1,0.2-0.1,0.3-0.2c0.1,0,0.3-0.1,0.5-0.1h0.7V38.1z M53.1,35.2c0-0.4-0.1-0.8-0.2-1.1c-0.1-0.3-0.3-0.6-0.6-0.8
				c-0.2-0.2-0.5-0.3-0.9-0.4c-0.4-0.1-0.8-0.1-1.2-0.1c-0.4,0-0.8,0-1.2,0.1c-0.4,0.1-0.7,0.1-0.9,0.2c-0.2,0-0.2,0.1-0.2,0.3v1
				c0,0.1,0,0.1,0.1,0.2c0,0,0.1,0,0.2,0h0.1c0.1,0,0.2,0,0.4,0c0.1,0,0.3,0,0.5,0c0.2,0,0.4,0,0.6,0c0.2,0,0.4,0,0.6,0
				c0.3,0,0.5,0.1,0.7,0.2c0.2,0.1,0.2,0.3,0.2,0.7v0.4h-0.7c-1.1,0-1.8,0.2-2.3,0.5c-0.5,0.3-0.7,0.9-0.7,1.6v0.1
				c0,0.4,0.1,0.7,0.2,1c0.1,0.3,0.3,0.5,0.5,0.7c0.2,0.2,0.4,0.3,0.7,0.3c0.2,0.1,0.5,0.1,0.8,0.1c0.4,0,0.7,0,1-0.1
				c0.3-0.1,0.5-0.2,0.8-0.4v0.2c0,0.1,0,0.1,0.1,0.2c0,0,0.1,0.1,0.2,0.1h1.4c0.1,0,0.1,0,0.2-0.1c0,0,0.1-0.1,0.1-0.2V35.2
				L53.1,35.2z M46.5,39.6v-0.9c0-0.1-0.1-0.2-0.3-0.2h-0.6c-0.2,0-0.3,0-0.3-0.1c0-0.1-0.1-0.2-0.1-0.5v-3.6h1c0.1,0,0.1,0,0.2-0.1
				s0.1-0.1,0.1-0.2v-1c0-0.1,0-0.1-0.1-0.2c0,0-0.1-0.1-0.2-0.1h-1v-1.3c0-0.1,0-0.1-0.1-0.2c0,0-0.1-0.1-0.2-0.1h0l-1.5,0.3
				c-0.1,0-0.1,0-0.2,0.1c0,0-0.1,0.1-0.1,0.2v1h-1c-0.1,0-0.1,0-0.2,0.1c-0.1,0.1-0.1,0.1-0.1,0.2v0.8c0,0.1,0,0.1,0.1,0.2
				c0.1,0,0.1,0.1,0.2,0.1l1,0.2v3.6c0,0.4,0,0.8,0.1,1.1c0.1,0.3,0.2,0.5,0.4,0.6s0.4,0.3,0.6,0.3c0.3,0.1,0.6,0.1,0.9,0.1
				c0.2,0,0.3,0,0.5,0c0.1,0,0.3,0,0.5-0.1C46.5,39.8,46.5,39.7,46.5,39.6L46.5,39.6z M41.2,39.5v-4.1c0-0.4,0-0.7-0.1-1.1
				c-0.1-0.3-0.2-0.6-0.3-0.9c-0.2-0.2-0.4-0.4-0.7-0.6c-0.3-0.1-0.6-0.2-1.1-0.2c-0.4,0-0.7,0-1,0.1c-0.3,0.1-0.6,0.3-1,0.5V33
				c0-0.1,0-0.1-0.1-0.2c0,0-0.1-0.1-0.2-0.1h-1.4c-0.1,0-0.1,0-0.2,0.1c0,0-0.1,0.1-0.1,0.2v6.5c0,0.1,0,0.1,0.1,0.2
				c0.1,0.1,0.1,0.1,0.2,0.1h1.5c0.1,0,0.1,0,0.2-0.1c0-0.1,0.1-0.1,0.1-0.2v-4.8c0.2-0.1,0.4-0.2,0.6-0.3c0.2-0.1,0.4-0.1,0.6-0.1
				c0.2,0,0.3,0,0.5,0.1c0.1,0,0.2,0.1,0.3,0.2c0.1,0.1,0.1,0.2,0.1,0.4c0,0.1,0,0.3,0,0.5v4.1c0,0.1,0,0.1,0.1,0.2
				c0,0.1,0.1,0.1,0.2,0.1h1.5c0.1,0,0.1,0,0.2-0.1C41.2,39.7,41.2,39.6,41.2,39.5L41.2,39.5z M31.9,36.7c0,1-0.4,1.5-1.1,1.5
				c-0.4,0-0.6-0.1-0.8-0.4c-0.2-0.3-0.3-0.6-0.3-1.1v-0.9c0-0.5,0.1-0.9,0.3-1.1c0.2-0.2,0.5-0.4,0.8-0.4c0.7,0,1.1,0.5,1.1,1.5
				V36.7z M33.9,35.9c0-0.5-0.1-0.9-0.2-1.3c-0.1-0.4-0.3-0.7-0.6-1c-0.3-0.3-0.6-0.5-1-0.6c-0.4-0.2-0.8-0.2-1.3-0.2
				s-0.9,0.1-1.3,0.2c-0.4,0.2-0.7,0.4-1,0.6c-0.3,0.3-0.5,0.6-0.6,1c-0.1,0.4-0.2,0.8-0.2,1.3v0.9c0,0.5,0.1,0.9,0.2,1.3
				c0.1,0.4,0.3,0.7,0.6,1c0.3,0.3,0.6,0.5,1,0.6c0.4,0.2,0.8,0.2,1.3,0.2s0.9-0.1,1.3-0.2c0.4-0.2,0.7-0.4,1-0.6
				c0.3-0.3,0.5-0.6,0.6-1c0.1-0.4,0.2-0.8,0.2-1.3V35.9z M27.1,39.4v-1.1c0-0.1,0-0.1-0.1-0.2c0,0-0.1-0.1-0.2-0.1h0
				c-0.2,0-0.4,0-0.7,0.1c-0.2,0-0.5,0-0.8,0c-0.1,0-0.3,0-0.4-0.1c-0.1,0-0.2-0.1-0.3-0.2c-0.1-0.1-0.2-0.3-0.2-0.4
				c-0.1-0.2-0.1-0.4-0.1-0.7v-1c0-0.3,0-0.5,0.1-0.7c0.1-0.2,0.1-0.3,0.2-0.4c0.1-0.1,0.2-0.2,0.3-0.2c0.1,0,0.3-0.1,0.4-0.1
				c0.4,0,0.6,0,0.8,0c0.2,0,0.4,0,0.7,0.1h0c0.1,0,0.1,0,0.2-0.1c0,0,0.1-0.1,0.1-0.2v-1.1c0-0.1,0-0.2-0.1-0.2
				c0,0-0.1-0.1-0.2-0.1c-0.2,0-0.4-0.1-0.7-0.1c-0.3,0-0.6-0.1-1-0.1c-0.9,0-1.6,0.3-2.1,0.8c-0.5,0.5-0.8,1.3-0.8,2.3v1
				c0,1,0.3,1.8,0.8,2.3c0.5,0.5,1.2,0.8,2.1,0.8c0.4,0,0.7,0,1-0.1c0.3,0,0.5-0.1,0.7-0.1c0.1,0,0.2-0.1,0.2-0.1
				C27.1,39.6,27.1,39.5,27.1,39.4L27.1,39.4z M21.1,39.5v-4.1c0-0.4,0-0.7-0.1-1.1s-0.2-0.6-0.3-0.9c-0.2-0.2-0.4-0.4-0.7-0.6
				c-0.3-0.1-0.6-0.2-1.1-0.2c-0.4,0-0.7,0-1,0.1c-0.3,0.1-0.6,0.3-1,0.5V33c0-0.1,0-0.1-0.1-0.2c0,0-0.1-0.1-0.2-0.1h-1.4
				c-0.1,0-0.1,0-0.2,0.1c0,0-0.1,0.1-0.1,0.2v6.5c0,0.1,0,0.1,0.1,0.2c0.1,0.1,0.1,0.1,0.2,0.1h1.5c0.1,0,0.1,0,0.2-0.1
				c0-0.1,0.1-0.1,0.1-0.2v-4.8c0.2-0.1,0.4-0.2,0.6-0.3c0.2-0.1,0.4-0.1,0.6-0.1c0.2,0,0.3,0,0.5,0.1c0.1,0,0.2,0.1,0.3,0.2
				c0.1,0.1,0.1,0.2,0.1,0.4c0,0.1,0,0.3,0,0.5v4.1c0,0.1,0,0.1,0.1,0.2c0,0.1,0.1,0.1,0.2,0.1h1.5c0.1,0,0.1,0,0.2-0.1
				C21,39.7,21.1,39.6,21.1,39.5L21.1,39.5z M11.6,38.1c-0.1,0.1-0.3,0.1-0.5,0.2c-0.2,0.1-0.3,0.1-0.5,0.1c-0.3,0-0.5,0-0.6-0.1
				s-0.2-0.2-0.2-0.5v-0.1c0-0.1,0-0.3,0-0.4c0-0.1,0.1-0.2,0.2-0.3c0.1-0.1,0.2-0.1,0.3-0.2c0.1,0,0.3-0.1,0.5-0.1h0.7V38.1
				L11.6,38.1z M13.5,35.2c0-0.4-0.1-0.8-0.2-1.1c-0.1-0.3-0.3-0.6-0.6-0.8c-0.2-0.2-0.5-0.3-0.9-0.4c-0.4-0.1-0.8-0.1-1.2-0.1
				c-0.4,0-0.8,0-1.2,0.1c-0.4,0.1-0.7,0.1-0.9,0.2c-0.2,0-0.2,0.1-0.2,0.3v1c0,0.1,0,0.1,0.1,0.2c0,0,0.1,0,0.2,0h0.1
				c0.1,0,0.2,0,0.4,0c0.1,0,0.3,0,0.5,0c0.2,0,0.4,0,0.6,0c0.2,0,0.4,0,0.6,0c0.3,0,0.5,0.1,0.7,0.2c0.2,0.1,0.2,0.3,0.2,0.7v0.4
				h-0.7c-1.1,0-1.8,0.2-2.3,0.5c-0.5,0.3-0.7,0.9-0.7,1.6v0.1c0,0.4,0.1,0.7,0.2,1c0.1,0.3,0.3,0.5,0.5,0.7
				c0.2,0.2,0.4,0.3,0.7,0.3c0.2,0.1,0.5,0.1,0.8,0.1c0.4,0,0.7,0,1-0.1c0.3-0.1,0.5-0.2,0.8-0.4v0.2c0,0.1,0,0.1,0.1,0.2
				c0,0,0.1,0.1,0.2,0.1h1.4c0.1,0,0.1,0,0.2-0.1c0,0,0.1-0.1,0.1-0.2V35.2z M4.8,37.1c0,0.3-0.1,0.6-0.4,0.8
				c-0.2,0.2-0.7,0.3-1.3,0.3H2.9c-0.1,0-0.2,0-0.3,0c-0.1,0-0.2,0-0.3,0H2.1v-2.3h1.4c0.5,0,0.8,0.1,1,0.3c0.2,0.2,0.3,0.5,0.3,0.8
				V37.1z M4.7,33.5c0,0.1,0,0.3-0.1,0.4c0,0.1-0.1,0.2-0.2,0.3c-0.1,0.1-0.2,0.2-0.4,0.2c-0.2,0.1-0.4,0.1-0.6,0.1H2.1v-2.1
				c0,0,0.1,0,0.2,0c0.1,0,0.2,0,0.3,0h0.3H3c0.6,0,1.1,0.1,1.3,0.2c0.2,0.2,0.4,0.4,0.4,0.7V33.5z M6.8,37c0-0.4-0.1-0.8-0.3-1.1
				c-0.2-0.3-0.5-0.5-0.8-0.7c0.3-0.2,0.6-0.4,0.8-0.7c0.2-0.3,0.3-0.7,0.3-1.1v-0.2c0-0.5-0.1-0.9-0.3-1.2
				c-0.2-0.3-0.5-0.6-0.8-0.8c-0.3-0.2-0.7-0.3-1.2-0.4c-0.5-0.1-1-0.1-1.6-0.1c-0.2,0-0.4,0-0.6,0c-0.2,0-0.4,0-0.6,0
				c-0.2,0-0.4,0-0.6,0c-0.2,0-0.3,0-0.4,0c-0.2,0-0.4,0.1-0.5,0.2C0.1,31,0,31.2,0,31.5V39c0,0.3,0.1,0.5,0.2,0.6
				c0.1,0.1,0.3,0.2,0.5,0.2c0.1,0,0.3,0,0.4,0.1c0.2,0,0.4,0,0.6,0s0.4,0,0.6,0c0.2,0,0.4,0,0.6,0c0.5,0,1,0,1.5-0.1
				c0.5-0.1,0.9-0.2,1.2-0.4c0.3-0.2,0.6-0.5,0.8-0.8c0.2-0.4,0.3-0.8,0.3-1.3V37L6.8,37z"/>
			<g id="Group">
				<path id="Shape_1_" class="st0" d="M56.4,7H38L26.6,19.9H5.9l6-6.7H9.1H5.2H3c-1.7,0-3,1.4-3,3.1v0v6v0.6c0,1.7,1.4,3.1,3,3.1
					h0.8h30.6h2.3c1.7,0,3.9-1,5-2.3l5.2-6L56.4,7z"/>
				<path id="Shape_2_" class="st0" d="M61.4,0H27.8c-1.7,0-3.9,1-5,2.3L8.1,18.9h18L37.5,6h21l-5.8,6.6h8.7c1.7,0,3-1.4,3-3.1V3.1
					C64.4,1.4,63.1,0,61.4,0z"/>
			</g>
		</g>
	</g>
</g>
</svg>
