<?xml version="1.0" encoding="utf-8"?>
<!-- Generator: Adobe Illustrator 24.1.2, SVG Export Plug-In . SVG Version: 6.00 Build 0)  -->
<svg version="1.1" id="Layer_1" xmlns="http://www.w3.org/2000/svg" xmlns:xlink="http://www.w3.org/1999/xlink" x="0px" y="0px"
	 viewBox="0 0 190 33" style="enable-background:new 0 0 190 33;" xml:space="preserve">
<style type="text/css">
	.st0{fill-rule:evenodd;clip-rule:evenodd;fill:#346275;}
</style>
<desc>Created with Sketch.</desc>
<g id="Payments">
	<g id="paysafe" transform="translate(0.000000, -4.000000)">
		<path class="st0" d="M17.7,16.6c0.1,0.4,0.1,0.7,0.1,1.1v7.8c0,0.7-0.1,1.3-0.3,1.9c-0.2,0.5-0.4,1-0.8,1.4
			c-0.5,0.5-1,0.8-1.7,0.9c-0.4,0.1-0.9,0.2-1.3,0.2c-3.3,0-6.6,0-9.9,0c-1,0-1.9-0.4-2.7-1c-0.1-0.1-0.2-0.3-0.3-0.4
			c-0.3-0.4-0.5-0.9-0.6-1.4c-0.1-0.3-0.1-0.5-0.1-0.8c0-0.1,0-0.2-0.1-0.3v-8.8c0.1-0.1,0.1-0.2,0.1-0.3c0-0.3,0.1-0.7,0.2-1
			c0.1-0.5,0.3-0.9,0.6-1.3c0.1-0.1,0.2-0.3,0.3-0.4c0.6-0.5,1.3-0.8,2.1-0.9c0.2,0,0.3,0,0.5,0h10.2c0.5,0,1,0.1,1.5,0.2
			c0.9,0.3,1.6,0.9,2,1.8C17.6,15.6,17.7,16.1,17.7,16.6L17.7,16.6L17.7,16.6z M38.3,17.6c0,2.8,0,5.6,0,8.3c0,1.1-0.4,1.9-1.1,2.7
			c-0.3,0.3-0.6,0.6-1,0.8c-0.5,0.3-0.9,0.4-1.5,0.4c-0.3,0-0.6,0-0.9,0h-4.6H29c-0.1,0-0.1,0-0.1,0.1c0,0.1,0,0.2,0,0.2v5.5
			c0,0.1,0,0.2,0,0.2c0,0.1,0,0.1-0.1,0.1h-0.2H25h-0.2c-0.1,0-0.1,0-0.1-0.1v-0.3v-9.3v-8.9c0-0.6,0.1-1.2,0.2-1.8
			c0.1-0.4,0.2-0.7,0.4-1c0.2-0.3,0.4-0.6,0.7-0.8c0.6-0.4,1.2-0.7,1.8-0.8c0.1,0,0.3,0,0.5,0h6.1c0.4,0,0.8,0.1,1.2,0.2
			c1.1,0.3,1.9,1,2.3,2c0.1,0.4,0.2,0.8,0.3,1.2C38.3,16.9,38.3,17.2,38.3,17.6L38.3,17.6L38.3,17.6z M34.2,18.5
			c0-0.2,0-0.3-0.1-0.5c-0.1-0.3-0.3-0.6-0.6-0.6c-0.1,0-0.2,0-0.3,0h-3.1c-0.2,0-0.3,0-0.4,0.1c-0.4,0.1-0.7,0.4-0.7,0.8
			c0,0.2-0.1,0.4-0.1,0.5c0,1.1,0,2.2,0,3.3c0,0.7,0,1.5,0,2.2c0,0.2,0,0.3,0.1,0.5c0.1,0.3,0.3,0.6,0.6,0.7
			c0.2,0.1,0.4,0.1,0.6,0.1h2.9c0.5,0,0.8-0.3,1-0.6c0.1-0.1,0.1-0.3,0.1-0.5v-3C34.2,20.5,34.2,19.5,34.2,18.5L34.2,18.5L34.2,18.5
			z M117.2,20.2c0-1,0-2.1,0-3.1c0-0.6,0.1-1.3,0.3-1.9c0.3-0.8,0.9-1.4,1.7-1.7c0.5-0.2,1-0.3,1.5-0.3c0.2,0,0.3,0,0.5,0h5.6
			c0.5,0,0.9,0,1.4,0.2c1.2,0.3,1.9,1.1,2.3,2.2c0.2,0.5,0.2,1,0.2,1.5v3.3c0,0,0,0.1,0,0.1c0,0,0,0.1-0.1,0.1c0,0-0.1,0-0.1,0.1
			c-1.7,0.7-3.3,1.3-5,2c-1.3,0.5-2.6,1-3.9,1.5c0,0-0.1,0-0.1,0.1c0,0-0.1,0-0.1,0.1c0,0.3,0,0.7,0.2,0.9c0.1,0.1,0.1,0.1,0.1,0.2
			c0.1,0.2,0.3,0.2,0.5,0.2h0.2h7.9c0.4,0,0.3,0,0.3,0.3v3.6c0,0.3,0,0.3-0.3,0.3h-4.5h-4.2c-0.5,0-1.1,0-1.6-0.1
			c-0.8-0.2-1.4-0.6-1.9-1.1c-0.3-0.4-0.6-0.8-0.7-1.3c-0.1-0.3-0.1-0.5-0.1-0.8c-0.1-0.6,0-1.2-0.1-1.8
			C117.2,23.1,117.2,21.6,117.2,20.2L117.2,20.2L117.2,20.2z M121.3,19.8c0,0.1,0,0.1,0,0.2c0,0,0,0.1,0.1,0.1
			c0.1,0,0.2-0.1,0.3-0.1c1.4-0.5,2.7-1,4.1-1.5c0.2-0.1,0.4-0.2,0.6-0.2c0.1,0,0.1-0.1,0.1-0.2c0-0.3-0.1-0.4-0.4-0.6
			c-0.2-0.1-0.4-0.2-0.6-0.2c-0.9,0-1.9,0-2.8,0c-0.4,0-0.8,0.1-1.1,0.5c-0.2,0.2-0.3,0.4-0.3,0.6c0,0.2,0,0.5,0,0.7V19.8
			L121.3,19.8L121.3,19.8z M55,15.8c0.1,0.5,0.2,0.9,0.2,1.4c0,2.9,0,5.8,0,8.7c0,0.7-0.1,1.3-0.4,2c-0.3,0.7-0.8,1.2-1.5,1.6
			c-0.4,0.2-0.9,0.4-1.3,0.4c-0.3,0-0.6,0-0.9,0h-5.1c-0.6,0-1.3-0.1-1.9-0.3c-0.5-0.2-1-0.4-1.4-0.8c-0.4-0.4-0.7-0.9-0.9-1.5
			c-0.1-0.4-0.2-0.8-0.2-1.2c0-1.2,0-2.3,0-3.5c0-0.5,0.1-1.1,0.2-1.6c0.3-1,1-1.7,2-2.1c0.5-0.2,0.9-0.2,1.4-0.3c0.1,0,0.3,0,0.4,0
			h5c0.4,0,0.4,0.1,0.4-0.4c0-0.1,0-0.3,0-0.4c-0.1-0.2-0.2-0.4-0.4-0.5c-0.1-0.1-0.3-0.1-0.4-0.1c-0.1,0-0.2,0-0.3,0H42
			c-0.1,0-0.1,0-0.2,0c-0.1,0-0.1,0-0.1-0.2c0-0.1,0-0.1,0-0.2c0-1.2,0-2.4,0-3.6c0-0.4,0-0.3,0.3-0.3h4.7H51c0.5,0,1,0,1.5,0.2
			c0.6,0.1,1.1,0.4,1.5,0.7C54.5,14.5,54.9,15.1,55,15.8L55,15.8L55,15.8z M51.1,23.9c0-0.1,0-0.3,0-0.4c0-0.4-0.3-0.7-0.7-0.8
			c-0.1,0-0.3-0.1-0.4-0.1c-0.5,0-1.1,0-1.6,0h-1.6c-0.1,0-0.2,0-0.4,0c-0.5,0.1-0.6,0.2-0.6,0.7c0,0,0,0.1,0,0.1c0,0.5,0,1,0,1.4
			c0,0.2,0.1,0.3,0.2,0.4c0.2,0.2,0.5,0.4,0.9,0.4c0.4,0,0.8,0,1.3,0H50c0.2,0,0.4,0,0.6-0.1c0.2-0.1,0.4-0.2,0.4-0.5
			c0-0.1,0-0.2,0-0.3C51.1,24.4,51.1,24.1,51.1,23.9L51.1,23.9L51.1,23.9z M108,29.9h3.5h0.2c0.1,0,0.1,0,0.1-0.1c0-0.1,0-0.1,0-0.2
			v-3v-8.9c0-0.3,0-0.3,0.3-0.3h2.4c0.3,0,0.3,0,0.3-0.2v-3.7c0,0,0-0.1,0-0.1c0-0.1,0-0.1-0.1-0.1h-0.1h-1.7h-0.8
			c-0.1,0-0.1,0-0.1-0.1c0-0.3,0-0.6,0-0.9c0-0.1,0-0.2,0.1-0.3c0.1-0.3,0.3-0.6,0.6-0.7c0.2-0.1,0.4-0.1,0.6-0.1h1.4
			c0.2,0,0.2,0,0.2-0.2V7.1c0-0.2,0-0.2-0.2-0.2c-0.8,0-1.6,0-2.4,0c-0.3,0-0.5,0-0.8,0.1c-0.9,0.1-1.7,0.5-2.4,1.1
			c-0.5,0.5-0.9,1-1.1,1.7c-0.1,0.4-0.1,0.8-0.1,1.2v9.2v9.4C107.7,29.9,107.7,29.9,108,29.9L108,29.9L108,29.9z M0.6,13.2
			C0.6,13.2,0.6,13.2,0.6,13.2c0.5-0.3,0.8-0.6,1.3-0.8c0.3-0.1,0.6-0.2,0.9-0.3c0.1,0,0.1-0.1,0.1-0.1c0.1-0.3,0.1-0.5,0.2-0.8
			C4,8.7,6.5,7,9.3,7.2c0.9,0.1,1.7,0.3,2.5,0.7c1.7,0.9,2.7,2.2,3.2,4c0.1,0.2,0.1,0.2,0.3,0.3c0.7,0.2,1.4,0.5,1.9,1
			c0,0,0.1,0.1,0.1,0c0-0.1,0-0.2,0-0.3c0-0.4,0-0.8-0.1-1.2c-0.1-0.5-0.1-1-0.3-1.5c-0.8-2.8-3-5.1-5.9-5.8
			c-0.5-0.1-0.9-0.2-1.4-0.3c0,0-0.1,0-0.1-0.1h-1H8c0,0,0,0,0,0.1c-0.3,0-0.5,0.1-0.8,0.1c-2,0.4-3.6,1.4-4.9,3
			c-0.9,1.1-1.5,2.5-1.8,3.9c-0.1,0.5-0.1,1-0.1,1.6C0.5,12.8,0.5,13,0.6,13.2C0.5,13.2,0.5,13.3,0.6,13.2L0.6,13.2L0.6,13.2z
			 M101.1,29.8c-0.3,0-0.6,0-0.9,0h-5.1c-0.6,0-1.3-0.1-1.9-0.3c-0.5-0.2-1-0.4-1.4-0.8c-0.4-0.4-0.7-1-0.9-1.6
			c-0.1-0.4-0.1-0.8-0.1-1.2c0-1.2,0-2.4,0-3.6c0-0.6,0.1-1.2,0.4-1.8c0.3-0.7,0.8-1.3,1.6-1.6c0.4-0.2,0.9-0.3,1.4-0.4
			c0.3,0,0.7,0,1,0h4.8h0.2c0.2,0,0.2,0,0.2-0.2c0-0.1,0-0.2,0-0.4c0-0.4-0.3-0.6-0.6-0.7c-0.2,0-0.4-0.1-0.5-0.1h-7.9h-0.2
			c-0.1,0-0.1,0-0.1-0.1v-0.2v-3.7c0-0.3,0-0.3,0.3-0.3h4.8h4.3c0.5,0,1,0,1.5,0.2c0.5,0.1,1,0.4,1.5,0.7c0.5,0.5,0.9,1.1,1,1.8
			c0.1,0.5,0.2,0.9,0.2,1.4v8.6c0,0.7-0.1,1.5-0.5,2.1c-0.3,0.6-0.8,1.1-1.4,1.5C102,29.6,101.6,29.8,101.1,29.8L101.1,29.8
			L101.1,29.8z M100.3,23.9c0-0.1,0-0.3,0-0.4c0-0.4-0.3-0.7-0.6-0.8c-0.1,0-0.3-0.1-0.4-0.1c-1.1,0-2.2,0-3.3,0
			c-0.2,0-0.3,0-0.4,0.1c-0.2,0-0.4,0.2-0.4,0.4c0,0.1-0.1,0.2-0.1,0.3c0,0.5,0,0.9,0,1.4c0,0.2,0.1,0.3,0.2,0.4
			c0.3,0.2,0.5,0.4,0.9,0.4c0.5,0,1.1,0,1.6,0h1.6c0.1,0,0.3,0,0.4-0.1c0.4-0.1,0.6-0.4,0.6-0.8C100.3,24.5,100.3,24.2,100.3,23.9
			L100.3,23.9L100.3,23.9z M162.4,28.2c-0.7,1.1-1.7,1.9-3.1,2.1c-0.3,0.1-0.7,0.1-1,0.1h-4.9c-0.8,0-1.4-0.1-2-0.3
			c-1.2-0.5-2.1-1.3-2.6-2.5c-0.2-0.4-0.3-0.8-0.4-1.4c0-0.4,0-0.7,0-1.1v-2c0-0.6,0.1-1.1,0.2-1.6c0.1-0.5,0.3-1,0.5-1.4
			c0.5-0.8,1.2-1.4,2.1-1.8c0.6-0.2,1.1-0.3,1.8-0.4c0.2,0,0.4,0,0.6,0h7.4c0-0.2,0-0.3,0-0.5c0-0.5-0.1-1-0.3-1.4
			c-0.2-0.5-0.5-0.8-0.8-1.1c-0.2-0.2-0.4-0.3-0.7-0.4c-0.4-0.1-0.8-0.1-1.1-0.1l-2.9,0l-5.8,0c-0.1,0-0.2,0-0.3,0
			c-0.4,0-0.6-0.3-0.7-0.7v-0.7c0-0.3,0.1-0.7,0.7-0.7l0.3,0c2.7,0,5.5,0,8.2,0c0.8,0,1.5,0.1,2.1,0.2c0.6,0.1,1.2,0.4,1.7,0.8
			c0.5,0.4,0.8,0.9,1.1,1.6c0.3,0.6,0.5,1.3,0.6,1.9c0,0.3,0,0.6,0,0.9l0,2.5l0,4.9c0,0.5,0,1.1-0.1,1.7
			C162.9,27.3,162.7,27.8,162.4,28.2L162.4,28.2L162.4,28.2z M160.9,20.2c-2.5,0-5,0-7.5,0c-0.3,0-0.6,0-0.9,0.1
			c-0.9,0.2-1.4,0.7-1.7,1.5c-0.1,0.3-0.2,0.7-0.2,1.1c0,1,0,2,0,3c0,0.3,0.1,0.6,0.1,1c0,0.1,0.1,0.3,0.2,0.4
			c0.1,0.1,0.2,0.3,0.4,0.4c0.6,0.5,1.3,0.8,2,0.8h0.7h1.5c0.9,0,1.8,0,2.8,0c0.5,0,0.8-0.1,1.2-0.2c0.5-0.2,0.9-0.6,1.1-1.1
			c0.2-0.4,0.2-0.8,0.2-1.3V20.2L160.9,20.2L160.9,20.2z M139.4,30.4h5.8h0c0.4,0,0.6-0.3,0.6-0.7v-0.7c0-0.7-0.4-0.8-0.8-0.8h-5.6
			c-0.3,0-0.6,0-0.9-0.1c-0.2,0-0.5-0.1-0.7-0.1c-0.5-0.2-0.8-0.4-1.1-0.6c-0.3-0.3-0.5-0.7-0.6-1.1c-0.1-0.4-0.2-0.9-0.2-1.5l0-4.6
			l0-2.3c0-0.4,0-0.8,0-1.2c0-0.2,0.1-0.5,0.1-0.7c0.1-0.4,0.3-0.7,0.5-0.9c0.2-0.1,0.4-0.3,0.6-0.4c0.5-0.2,1-0.3,1.6-0.3l2,0l4,0
			c0.1,0,0.2,0,0.2,0l0.7-0.1v-1.4l-0.1-0.6l-0.5-0.1c-0.1,0-0.2,0-0.3,0h-5.3c-0.5,0-1,0-1.5,0c-0.4,0-0.8,0.1-1.3,0.2
			c-0.8,0.2-1.4,0.7-2,1.4c-0.4,0.5-0.7,1.1-0.9,1.8c-0.1,0.4-0.1,0.7-0.1,1.1v8.5c0,0.5,0.1,1.1,0.2,1.7c0.3,1,0.9,1.8,1.7,2.4
			c0.5,0.3,0.9,0.6,1.4,0.6C138,30.4,138.6,30.4,139.4,30.4L139.4,30.4L139.4,30.4z M168.9,29.5V17.8c0-0.3,0-0.6,0-0.9
			c0.1-0.4,0.1-0.7,0.3-1c0.2-0.4,0.4-0.7,0.8-0.9c0.2-0.1,0.4-0.2,0.7-0.3c0.3-0.1,0.6-0.1,1.1-0.1l0.3,0l0.6,0c0.1,0,0.2,0,0.3,0
			l0.6-0.2v-1.3l-0.1-0.6l-0.5-0.1c-0.6-0.1-1.1,0-1.6,0c-0.5,0-0.9,0.1-1.3,0.2c-0.8,0.2-1.6,0.6-2.1,1.2c-0.5,0.5-0.8,1.1-1,1.9
			c-0.1,0.6-0.2,1.2-0.2,2v11.9l0.1,0.9h1.2c0.1,0,0.4,0,0.6-0.2C168.9,30,168.9,29.8,168.9,29.5L168.9,29.5L168.9,29.5z M190,7.7
			v17.4c0,0.9-0.1,1.7-0.4,2.4c-0.5,1.3-1.4,2.2-2.7,2.6c-0.5,0.2-1,0.3-1.6,0.3c-0.4,0-0.8,0-1.2,0h-2.5h-1.2
			c-0.6,0-1.2-0.1-1.7-0.2c-0.4-0.1-0.7-0.2-1-0.4c-1.2-0.6-2-1.6-2.3-2.9c-0.1-0.6-0.2-1.2-0.2-1.8v-7.5c0-0.7,0.1-1.5,0.3-2.1
			c0.2-0.7,0.6-1.4,1.1-1.9c0.5-0.6,1.2-0.9,2-1.2c0.6-0.2,1.2-0.3,2-0.3h7.3l0-4.7c0-0.5,0.3-0.7,0.8-0.7h0.7
			C189.7,6.9,190,7.2,190,7.7L190,7.7L190,7.7z M187.8,14.6h-6.5h0c-0.4,0-0.7,0-1.1,0c-0.3,0-0.6,0.1-0.9,0.1
			c-0.3,0.1-0.6,0.2-0.8,0.4c-0.2,0.2-0.4,0.4-0.5,0.6c-0.2,0.2-0.3,0.4-0.4,0.6c-0.1,0.4-0.2,0.7-0.2,1.1v8.1c0,0.2,0,0.3,0,0.4
			c0,0.3,0.1,0.6,0.2,0.9c0.2,0.5,0.4,0.8,0.8,1c0.2,0.1,0.3,0.2,0.5,0.2c0.6,0.2,1.1,0.3,1.7,0.3h3.4c0.4,0,0.8,0,1.2-0.1
			c0.7-0.1,1.3-0.4,1.8-0.8c0.1-0.1,0.2-0.2,0.3-0.3c0.2-0.2,0.4-0.5,0.4-0.9c0.1-0.4,0.2-0.8,0.2-1.2V14.6L187.8,14.6L187.8,14.6z
			 M71.7,13.1h-3.4c-0.4,0-0.4,0-0.4,0.4v10.8v0.2c0,0.2-0.1,0.4-0.2,0.5c-0.3,0.3-0.6,0.6-1,0.6h-3c-0.5,0-0.9-0.3-1-0.8
			c-0.1-0.2-0.1-0.4-0.1-0.7V13.4c0-0.3,0-0.3-0.3-0.3h-3.5c-0.4,0-0.3,0-0.3,0.3v7.4v4.6c0,0.4,0,0.9,0.1,1.3
			c0.1,0.6,0.4,1.2,0.8,1.7c0.5,0.6,1.2,1.1,2,1.3c0.4,0.1,0.8,0.1,1.2,0.1h4.9h0.2c0.1,0,0.1,0,0.1,0.1c0,0.3,0,0.6,0,0.8
			c0,0.2-0.1,0.4-0.2,0.6c-0.2,0.2-0.5,0.4-0.8,0.4c-0.1,0-0.3,0-0.4,0h-7.7c-0.3,0-0.3,0-0.3,0.3v3.6c0,0,0,0.1,0,0.2
			c0,0.1,0,0.1,0.1,0.1h0.2H68c0.3,0,0.5,0,0.8-0.1c0.7-0.1,1.3-0.4,1.9-0.9c0.6-0.5,0.9-1.2,1.1-1.9C72,32.7,72,32,72,31.4
			c0-3,0-6,0-8.9v-9C72,13.1,72.1,13.1,71.7,13.1L71.7,13.1L71.7,13.1z M83.9,29.9c0.4,0,0.7,0,1.1-0.1c0.4-0.1,0.7-0.2,1-0.5
			c0.7-0.6,1.3-1.3,1.6-2.2c0.1-0.3,0.2-0.7,0.2-1c0-1,0-2.1,0-3.1c0-0.3,0-0.5-0.1-0.8c-0.2-0.9-0.7-1.7-1.5-2.2
			c-0.6-0.5-1.3-0.7-2.1-0.7h-3.5c-0.1,0-0.3,0-0.4,0c-0.2,0-0.4-0.1-0.5-0.1c-0.3-0.1-0.4-0.3-0.4-0.6c0-0.2,0-0.3,0-0.5
			c0-0.3,0.1-0.5,0.4-0.6c0.1,0,0.2-0.1,0.3-0.1c0.2,0,0.4,0,0.6,0h6.9c0.3,0,0.3,0,0.3-0.3v-3.6c0-0.3,0-0.3-0.3-0.3h-4.3h-3.8
			c-0.2,0-0.3,0-0.5,0c-0.5,0-1.1,0.1-1.6,0.3c-0.9,0.3-1.5,1-1.8,1.9c-0.2,0.5-0.2,0.9-0.2,1.4c0,1.1,0,2.2,0,3.3
			c0,0.6,0.2,1.2,0.6,1.8c0.2,0.3,0.4,0.5,0.7,0.7c0.8,0.7,1.7,1,2.7,1.1h0.3c1.1,0,2.1,0,3.2,0c0.3,0,0.5,0.1,0.6,0.3
			c0.3,0.4,0.2,0.8,0.1,1.2c0,0,0,0,0,0c-0.1,0.2-0.2,0.3-0.4,0.4c-0.2,0.1-0.4,0.1-0.6,0.1h-7c-0.3,0-0.3,0-0.3,0.3v3.7
			c0,0.3,0,0.3,0.3,0.3C78.3,29.9,81.1,29.9,83.9,29.9L83.9,29.9L83.9,29.9z"/>
	</g>
</g>
</svg>
