<?xml version="1.0" encoding="utf-8"?>
<!-- Generator: Adobe Illustrator 24.1.2, SVG Export Plug-In . SVG Version: 6.00 Build 0)  -->
<svg version="1.1" id="Layer_1" xmlns="http://www.w3.org/2000/svg" xmlns:xlink="http://www.w3.org/1999/xlink" x="0px" y="0px"
	 viewBox="0 0 118 40" style="enable-background:new 0 0 118 40;" xml:space="preserve">
<style type="text/css">
	.st0{fill-rule:evenodd;clip-rule:evenodd;fill:#346275;}
</style>
<desc>Created with Sketch.</desc>
<g id="Payments">
	<g id="skrill" transform="translate(-36.000000, 0.000000)">
		<path class="st0" d="M129.2,3.9l9.8-1.8v37.4h-9.8V3.9L129.2,3.9L129.2,3.9L129.2,3.9z M143.4,3.9v35.7h9.8V2.2L143.4,3.9
			L143.4,3.9L143.4,3.9L143.4,3.9z M115.3,39.6h9.8V12.2h-9.8V39.6L115.3,39.6L115.3,39.6L115.3,39.6z M50.8,16.1
			c-1.2-0.1-4.1-0.3-4.1-2.8c0-3.1,4.1-3.1,5.6-3.1c2.7,0,6.2,0.8,8.7,1.6c0,0,1.4,0.5,2.6,1l0.1,0.1v-0.1V4.2l-0.2-0.1
			c-2.9-1-6.4-2-12.8-2C39.9,2.2,36,8.6,36,14.1c0,3.2,1.3,10.6,14,11.5c1.1,0.1,3.9,0.2,3.9,2.9c0,2.2-2.3,3.5-6.2,3.5
			c-4.3,0-8.4-1.1-11-2.1v8.7c3.8,1,8,1.5,13,1.5c10.7,0,15.6-6,15.6-12.1C65.3,21.1,59.9,16.7,50.8,16.1L50.8,16.1L50.8,16.1
			L50.8,16.1z M109.8,11.8c-9,0.3-13.6,4.3-13.6,12.4v15.4h9.8V27c0-4.8,0.6-6.9,6.4-7.1v-8C111.4,11.8,109.8,11.8,109.8,11.8
			L109.8,11.8L109.8,11.8L109.8,11.8z M83.3,12.2c-0.2,0.6-1.8,5-5.6,9.5V2.2l-10.1,2v35.5h10.1v-11c2.9,4.4,4.3,11,4.3,11h12
			c-1.2-5-6.4-14.1-6.4-14.1c4.7-5.9,6.7-12.2,7.1-13.3H83.3L83.3,12.2L83.3,12.2L83.3,12.2z M120.2,9.6c2.6,0,4.8-2.2,4.8-4.8
			S122.8,0,120.2,0c-2.6,0-4.8,2.2-4.8,4.8S117.5,9.6,120.2,9.6L120.2,9.6L120.2,9.6L120.2,9.6z"/>
	</g>
</g>
</svg>
