<?xml version="1.0" encoding="utf-8"?>
<!-- Generator: Adobe Illustrator 24.1.2, SVG Export Plug-In . SVG Version: 6.00 Build 0)  -->
<svg version="1.1" id="Layer_1" xmlns="http://www.w3.org/2000/svg" xmlns:xlink="http://www.w3.org/1999/xlink" x="0px" y="0px"
	 viewBox="0 0 217 40" style="enable-background:new 0 0 217 40;" xml:space="preserve">
<style type="text/css">
	.st0{fill-rule:evenodd;clip-rule:evenodd;fill:#346275;}
</style>
<desc>Created with Sketch.</desc>
<g id="Footer">
	<g id="sofort">
		<g id="logo">
			<path id="Fill-1" class="st0" d="M59.7,1.1H37.9c-3.4,0-6.8,0-9.7,1.5c-3,1.5-5.6,4.6-7.7,10.6c-0.4,1.3-0.7,2.4-0.7,3.4
				c0,1,0.1,1.8,0.5,2.5c0.5,0.9,1.2,1.7,2.1,2.4c0.9,0.7,2,1.3,3.2,1.6c0,0,0.7,0.2,1.4,0.4c0.8,0.2,1.6,0.5,2.2,0.6
				c0.3,0.1,0.7,0.2,1,0.4s0.6,0.5,0.8,0.8c0.1,0.2,0.2,0.5,0.2,0.8c0,0.3,0,0.6-0.2,0.9c-0.3,0.8-0.7,1.4-1.5,1.7
				c-0.8,0.3-2,0.4-3.8,0.4H3.5L0,39h24c2.3,0,6.4,0,10.3-1.7c4-1.7,7.8-5,9.4-11.8c0.6-2.5,0.4-4.6-0.6-6.2c-1-1.6-2.8-2.8-5.4-3.5
				c0,0-0.6-0.2-1.3-0.4c-0.7-0.2-1.5-0.4-1.9-0.5c-0.7-0.2-1.2-0.6-1.5-1.1c-0.3-0.5-0.4-1.1-0.2-1.7c0.2-0.6,0.6-1.1,1.2-1.5
				c0.6-0.3,1.5-0.5,2.4-0.5h13.9c0.1-0.1,0.2-0.3,0.3-0.4C53.2,6.1,56.3,3.2,59.7,1.1"/>
			<path id="Fill-3" class="st0" d="M59.7,1.1H38c-3.4,0-6.8,0-9.7,1.5c-3,1.5-5.6,4.5-7.7,10.6c-0.4,1.3-0.7,2.4-0.7,3.4
				c0,1,0.1,1.8,0.5,2.5c0.5,0.9,1.2,1.7,2.1,2.4c0.9,0.7,2,1.3,3.2,1.6c0,0,0.7,0.2,1.4,0.4c0.8,0.2,1.6,0.5,2.2,0.6
				c0.3,0.1,0.7,0.2,1,0.4c0.3,0.2,0.6,0.5,0.8,0.8c0.1,0.2,0.2,0.5,0.2,0.8c0,0.3,0,0.6-0.2,0.9c-0.3,0.8-0.7,1.4-1.5,1.7
				c-0.8,0.3-2,0.4-3.8,0.4H3.6L0,39h24c2.3,0,6.4,0,10.3-1.7c4-1.7,7.8-5,9.4-11.8c0.6-2.5,0.4-4.6-0.6-6.2c-1-1.6-2.8-2.8-5.4-3.5
				c0,0-0.6-0.2-1.3-0.4c-0.7-0.2-1.5-0.4-1.9-0.5c-0.7-0.2-1.2-0.6-1.5-1.1c-0.3-0.5-0.4-1.1-0.2-1.7c0.2-0.6,0.6-1.1,1.2-1.5
				c0.6-0.3,1.5-0.5,2.4-0.5h13.9c0.1-0.1,0.2-0.3,0.3-0.4C53.3,6,56.3,3.1,59.7,1.1"/>
			<path id="Fill-5" class="st0" d="M178.2,1.1c0.7,0.6,1.4,1.3,1.9,2c1.4,2,1.9,4.3,1.6,7h7l-10.5,28.9h10.5l10.5-28.9h13.5l3.3-9
				H178.2z"/>
			<path id="Fill-7" class="st0" d="M167.4,13.2c-1.1,3-3.1,4.9-7,4.9h0l-2,0l3.4-9.2h1.9C167.3,9,168.6,10,167.4,13.2 M177.6,4.8
				c-1.7-2.5-5.3-3.7-10.8-3.7h-12.8l-13.8,37.9H152l5-13.4c0.2,0.5,3.2,13.4,3.2,13.4h12.3c0,0-2.2-9.4-3.9-13.2
				c-0.4-1-0.9-2.1-1.5-3c3.5-1.3,8.5-4.1,10.6-9.7C179.1,9.7,179.1,6.9,177.6,4.8"/>
			<path id="Fill-9" class="st0" d="M69.9,19.9C66.7,28.8,64.3,31,60.8,31h0c-3.5,0-4.7-2.2-1.4-11.1c2.4-6.6,5.6-10.8,9.3-10.8h0
				C72.3,9.1,73.1,11.2,69.9,19.9 M81.1,4.6c-1.9-2.7-5.1-4.1-9.7-4.1c-3,0-5.8,0.7-8.5,1.9c-3.8,1.8-7.3,4.9-10.2,8.9
				c-1.8,2.6-3.4,5.6-4.7,9c-2.3,6.4-2.3,11.6,0.1,15c1.4,1.9,4.2,4.2,9.9,4.2h0c10.4,0,18.2-6.8,23.1-20.3
				C82.5,15.8,84.2,9.1,81.1,4.6"/>
			<path id="Fill-11" class="st0" d="M122.7,1.1h-22.2c-6.2,0-10.8,3.1-13,9L77,39h11.5L94,24.2l10.2,0l2.9-8l-10.2,0l1.6-4.6
				c0.3-0.8,1.2-1.5,2.4-1.5c0.7,0,8.1,0,12,0c0.1-0.1,0.2-0.3,0.3-0.4C115.8,6.1,119.4,3.2,122.7,1.1"/>
			<path id="Fill-13" class="st0" d="M132.8,19.9c-3.3,8.9-5.6,11.1-9.2,11.1h0c-3.5,0-4.7-2.2-1.4-11.1c2.4-6.6,5.6-10.8,9.3-10.8
				h0C135.2,9.1,136,11.2,132.8,19.9 M144,4.6c-1.9-2.7-5.1-4.1-9.7-4.1c-2.9,0-5.8,0.7-8.5,1.9c-3.8,1.8-7.3,4.9-10.2,8.9
				c-1.8,2.6-3.4,5.6-4.7,9c-2.3,6.4-2.3,11.6,0.1,15c1.4,1.9,4.2,4.2,9.9,4.2h0c10.4,0,18.2-6.8,23.1-20.3
				C145.4,15.8,147.1,9.1,144,4.6"/>
			<path id="Fill-15" class="st0" d="M178.2,1.1c0.7,0.6,1.4,1.3,1.9,2c1.4,2,1.9,4.3,1.6,7h7L178.1,39h10.5l10.5-28.9h13.5l3.3-9
				H178.2z"/>
			<path id="Fill-17" class="st0" d="M167.4,13.2c-1.1,3-3.1,4.9-7,4.9h0l-2,0l3.4-9.2h1.9C167.3,8.9,168.6,9.9,167.4,13.2
				 M177.6,4.8c-1.7-2.5-5.3-3.7-10.8-3.7h-12.8L140.3,39H152l5-13.4c0.2,0.5,3.2,13.4,3.2,13.4h12.3c0,0-2.2-9.4-3.9-13.2
				c-0.4-1-0.9-2.1-1.5-3c3.5-1.3,8.5-4.1,10.6-9.7C179.1,9.6,179.1,6.8,177.6,4.8"/>
			<path id="Fill-19" class="st0" d="M69.9,19.8C66.7,28.8,64.3,31,60.8,31h0c-3.5,0-4.7-2.2-1.4-11.1c2.4-6.6,5.5-10.8,9.3-10.8h0
				C72.3,9.1,73.1,11.2,69.9,19.8 M81.1,4.6c-1.9-2.7-5.1-4.1-9.7-4.1c-3,0-5.8,0.7-8.5,1.9c-3.8,1.8-7.3,4.9-10.2,8.9
				c-1.8,2.6-3.4,5.6-4.7,9c-2.3,6.4-2.3,11.6,0.1,15c1.4,1.9,4.2,4.2,9.9,4.2h0c10.4,0,18.2-6.8,23.1-20.3
				C82.5,15.8,84.2,9.1,81.1,4.6"/>
			<path id="Fill-22" class="st0" d="M122.7,1.1h-22.2c-6.2,0-10.8,3.1-13,9L77,39h11.5L94,24.1l10.2,0l2.9-8l-10.2,0l1.6-4.6
				c0.3-0.8,1.2-1.5,2.3-1.5c0.7,0,8.1,0,12,0c0.1-0.1,0.2-0.3,0.3-0.4C115.8,6,119.4,3.1,122.7,1.1"/>
			<path id="Fill-24" class="st0" d="M132.8,19.8c-3.3,8.9-5.6,11.1-9.2,11.1h0c-3.5,0-4.7-2.2-1.4-11.1c2.4-6.6,5.6-10.8,9.3-10.8
				h0C135.2,9.1,136,11.2,132.8,19.8 M144,4.6c-1.9-2.7-5.1-4.1-9.7-4.1c-3,0-5.8,0.7-8.5,1.9c-3.8,1.8-7.3,4.9-10.2,8.9
				c-1.8,2.6-3.4,5.6-4.7,9c-2.3,6.4-2.3,11.6,0.1,15c1.4,1.9,4.2,4.2,9.9,4.2h0c10.4,0,18.2-6.8,23.1-20.3
				C145.4,15.8,147.1,9.1,144,4.6"/>
		</g>
	</g>
</g>
</svg>
